<?xml version="1.0" encoding="utf-8"?>
<!-- Generator: Adobe Illustrator 24.0.2, SVG Export Plug-In . SVG Version: 6.00 Build 0)  -->
<svg version="1.1" id="Layer_1" xmlns="http://www.w3.org/2000/svg" xmlns:xlink="http://www.w3.org/1999/xlink" x="0px" y="0px"
	 viewBox="0 0 1776 493" style="enable-background:new 0 0 1776 493;" xml:space="preserve">
<g>
	<path d="M692.9,57c-11-15.2-23-24.3-48.3-24.3c-23,0-36.6,10.4-36.6,29.2c0,21.4,16.8,29.8,47.9,36.6c45,9.7,68.4,26.6,68.4,66.7
		c0,33.4-22.4,64.1-76.1,64.1c-38.2,0-65.1-11.7-83.6-36.6l29.5-20.4c13.3,15.9,26.6,24.3,52.2,24.3c30.8,0,40.5-13.6,40.5-29.8
		c0-17.8-10-28.8-48.9-37.3c-43.1-9.1-67.4-29.8-67.4-67.7c0-33.7,22-61.9,74.5-61.9c35.6,0,60.6,12,76.5,36.6L692.9,57z"/>
	<path d="M836.7,229.4c-49.9,0-83.6-30.1-83.6-100.4v-28.5C753.1,30.1,786.8,0,836.7,0c50.2,0,83.9,30.1,83.9,100.4v28.5
		C920.6,199.2,886.9,229.4,836.7,229.4z M790.7,128.9c0,48.3,16.2,67.7,46,67.7c29.8,0,46.3-19.4,46.3-67.7v-28.5
		c0-48.3-16.5-67.7-46.3-67.7c-29.8,0-46,19.4-46,67.7V128.9z"/>
	<path d="M1080.3,72.2c-5.8-27.2-20.4-39.5-45-39.5c-29.8,0-46,19.4-46,67.7v28.5c0,47.6,16.2,67.7,46,67.7
		c25.6,0,39.2-12.3,45-39.5h36c-7.5,50.2-36.6,72.2-81,72.2c-49.9,0-83.6-30.1-83.6-100.4v-28.5C951.7,30.1,985.4,0,1035.3,0
		c44.4,0,73.9,23.6,81.3,72.2H1080.3z"/>
	<path d="M1191.8,226.4h-37.6V2.9h37.6V226.4z"/>
	<path d="M1219.9,226.4l77.7-223.5h35.6l77.7,223.5h-39.8l-15.2-46.3h-80.7l-15.2,46.3H1219.9z M1285.7,147.7h59.6l-29.8-90.4
		L1285.7,147.7z"/>
	<path d="M1474.3,194.1h99.5v32.4h-137V2.9h37.6V194.1z"/>
</g>
<g>
	<path d="M591.4,451.2c6.1,8.3,15.5,13.9,28,13.9c22.4,0,33.8-12.2,33.8-50.1V299.4h32.1v115.5c0,56.5-24.4,78.1-64.5,78.1
		c-24.4,0-44.3-8.9-56.2-26.6L591.4,451.2z"/>
	<path d="M870.4,299.4v113.6c0,56.5-29.1,80.1-71.5,80.1c-42.4,0-71.5-23.5-71.5-79.8V299.4h32.1v113.8c0,36.6,13,51.8,39.3,51.8
		c26.3,0,39.3-15.2,39.3-51.8V299.4H870.4z"/>
	<path d="M1011.9,345.6c-9.4-13-19.7-20.8-41.3-20.8c-19.7,0-31.3,8.9-31.3,24.9c0,18.3,14.4,25.5,41,31.3
		c38.5,8.3,58.4,22.7,58.4,57.1c0,28.5-19.1,54.8-65.1,54.8c-32.7,0-55.7-10-71.5-31.3l25.2-17.5c11.4,13.6,22.7,20.8,44.6,20.8
		c26.3,0,34.6-11.6,34.6-25.5c0-15.2-8.6-24.7-41.8-31.9c-36.8-7.8-57.6-25.5-57.6-57.9c0-28.8,18.8-52.9,63.7-52.9
		c30.5,0,51.8,10.3,65.4,31.3L1011.9,345.6z"/>
	<path d="M1191.4,299.4v28h-54.8v163.2h-32.1V327.3h-55.1v-28H1191.4z"/>
	<path d="M1249.3,490.5h-32.1V299.4h32.1V490.5z"/>
	<path d="M1396.1,358.6c-5-23.3-17.5-33.8-38.5-33.8c-25.5,0-39.3,16.6-39.3,57.9v24.4c0,40.7,13.8,57.9,39.3,57.9
		c21.9,0,33.5-10.5,38.5-33.8h30.7c-6.4,42.9-31.3,61.8-69.2,61.8c-42.7,0-71.5-25.8-71.5-85.9v-24.4c0-60.1,28.8-85.9,71.5-85.9
		c37.9,0,63.2,20.2,69.5,61.8H1396.1z"/>
	<path d="M1573.7,299.4v28h-85v50.4h76.7v27.7h-76.7v57.3h85v27.7h-117.2V299.4H1573.7z"/>
</g>
<g>
	<path d="M1776,437.8v21.5l-132.3,31.2v-23.8l94.5-20.3l-94.5-27v-20.5l95.1-27.6l-95.1-20.3v-23.8l132.3,31.2v21.7l-96.2,28.9
		L1776,437.8z"/>
	<path d="M1643.7,230h19.4v58.8h34.9v-53.1h19.2v53.1h39.7V230h19.2v81.1h-132.3V230z"/>
	<path d="M1643.7,127.8h19.4v58.8h34.9v-53.1h19.2v53.1h39.7v-58.8h19.2v81.1h-132.3V127.8z"/>
	<path d="M1776,26.6L1715.6,65l25.1,19.6h35.3v22.2h-132.3V84.5h63.8l-63.8-48.7V8.6l53.3,41.8L1776,0V26.6z"/>
</g>
<path d="M231.6,0C242,0,252.5,0,263,0c1.3,0.2,2.5,0.5,3.8,0.7c11.5,1.7,23.1,2.6,34.4,5.2c57.6,13.3,105,43.1,141.3,89.9
	c31.1,40.1,48,85.7,51.2,136.3c1.5,23.8-0.3,47.5-6.1,70.7c-14.2,57.3-44.6,104.2-91.9,139.6c-36.9,27.7-78.5,43.6-124.5,48.3
	c-27.3,2.8-54.3,1.3-80.9-5.3c-71.7-17.9-125.8-59-161.3-124C14.9,335.7,6.1,308,2.3,278.8c-0.8-6-1.5-12.1-2.3-18.1
	c0-9.9,0-19.9,0-29.8c0.2-1.1,0.5-2.3,0.7-3.4c1.7-11.6,2.4-23.4,5.1-34.8C22.3,122.8,61.4,69.2,123.5,32.9
	c28-16.3,58.2-26.5,90.3-30.7C219.7,1.5,225.6,0.7,231.6,0z M402.3,92.2c-2.8-2.7-5.6-5.4-8.7-8.5C393.7,87.3,398.9,92,402.3,92.2
	c0,0.4-0.1,1.1,0.1,1.3c3.9,3.6,7.8,7.1,11.9,10.8C412.9,96.1,408.7,92.8,402.3,92.2z M414,111c0.4,2.4,0.8,4.7,1.2,7.3
	c-1.7,0.2-3,0.3-4.5,0.5c4.4,5,7.2,6.7,10.4,6.4C418.8,120.4,416.4,115.7,414,111c-1.3-1.1-2.6-2.1-3.9-3.2
	c-6.3-5.5-12.7-11.1-19.2-16.8c-1.1,1.5-1.8,2.3-2.5,3.2c3,3.1,6.3,5.7,8.4,9.1C401.1,109.8,407.3,110.8,414,111z M75.2,186.2
	c1.4,2.2,2.9,4.5,4.3,6.7c0.2-3.3,0.5-6.7-3.9-7.1c-3.1-10.4-3.5-21-3.2-32.7c-3.4,3.9-6.3,7-8.9,10.3c-0.5,0.6-0.5,2.1-0.1,2.8
	C67.2,172.9,71.2,179.6,75.2,186.2z M347.3,78.1c-1.2,3.9-2.2,7.1-3.2,10.3c-0.8,2.8,1,6.8,3.7,7.2c9.7,1.7,19.5,2.2,29-0.9
	c8.3-2.7,13.4-10.1,11.5-17.1c-1.1-4.1-2.9-8.1-4.9-11.8c-4.3-7.9-11.3-13.6-18.3-18.6c-20.3-14.6-42.7-23.5-68.2-21.9
	c-4.7,0.3-9.6,2.3-13.9,4.5c-5.3,2.6-7.6,8.8-6.6,14.3c0.1,0.7,0.8,1.9,1,1.8c4.1-0.8,3.8,3.4,6.4,4.9c-1.7,1-2.9,1.7-4.3,2.5
	c2.3,0.9,4.4,1.7,6.5,2.5c-0.1,0.4-0.1,0.7-0.2,1.1c-1,0.3-2,0.7-2.9,1c0.5,0.8,0.9,1.6,1.3,2.3c1.4-1.2,2.4-2.2,3.5-3.1
	c2.5,2.7,1.5,4.7-0.7,6.7c3.4,3.1,6.7,6.1,10,9c1.4,1.2,2.9,2.2,4.4,3.3c0.5-6,2.3-7.8,7.6-5.6c1.3,0.6,3.3-0.2,5-0.6
	c1.1-0.3,2.1-1.5,3.1-1.5c4.1,0.1,8.3,0.1,10,4.1c1.7-1.1,3.1-2.8,4.1-2.6c3.4,0.5,7.6,0.1,8.7,5.1c-0.9,0.2-1.9,0.3-2.8,0.4
	c0,0.4-0.1,0.8-0.1,1.2C340.2,77.1,343.5,77.6,347.3,78.1z M221.6,307.5c-7.3,15.8-14.6,31.7-22.3,48.3c18.4,7,36.3,13.8,54.5,20.8
	c6.9-17,13.5-33.2,20-49.2C256.3,320.7,239.2,314.2,221.6,307.5z M199.2,224.3c-9.5,16-19.1,32.4-29.2,49.5
	c16.5,8.9,32.6,17.5,49,26.4c8.3-18,16.3-35.3,24.1-52.3C228.3,240,214,232.3,199.2,224.3z M223.9,302.6c17.5,6.6,34.5,13.1,52,19.7
	c6.4-18.9,12.5-36.7,18.5-54.3c-15.7-6-30.9-11.9-46.4-17.8C240.2,267.3,232.3,284.4,223.9,302.6z M279.3,328.8
	c-6.7,16.4-13.4,32.4-20.3,49.4c17.9,4.1,35.8,8.2,54.1,12.4c4.6-12.4,8.8-23.8,12.9-35.3c1-2.7,3.1-5.6,0.3-8.6
	c-0.3-0.4,0.1-1.8,0.6-2.5c2.1-3,0.7-4.1-2.3-4.7c-6.5-1.3-13-2.5-19.5-4.1C296.7,333.4,288.1,331.1,279.3,328.8z M281.4,323.5
	c3.1,0.9,6.1,1.8,9.1,2.5c11.9,2.8,23.8,5.6,35.7,8.2c1.5,0.3,4.4,0,4.8-0.9c2.6-5.9,6.4-11.5,4.9-18.5c-0.2-0.9-0.1-2,0.2-2.9
	c1.6-4.2,3.7-8.2,4.9-12.5c1.7-6.4,2.7-12.9,3.9-19.1c-15.5-3.7-30.3-7.2-45.2-10.7C293.6,287.4,287.6,305.2,281.4,323.5z
	 M122.8,239.5c14.5,10.7,28.5,20.9,42.6,31.3c10.2-17.2,19.8-33.4,29.3-49.4c-12.6-9.3-24.9-18.3-37.7-27.7
	C145.8,208.6,134.6,223.6,122.8,239.5z M234.2,171.4c-10.6,15.9-21.2,31.8-32.1,48.3c14.7,7.9,28.8,15.5,43.2,23.3
	c8.3-18,16.2-35.2,24.2-52.4C257.8,184.1,246.4,178,234.2,171.4z M312,207.2c-12.7-4.9-25-9.6-37.4-14.4
	c-8,17.3-15.9,34.5-24.2,52.5c15.3,5.9,30.2,11.6,45.7,17.5C301.5,243.7,306.8,225.4,312,207.2z M301.4,264.4
	c14.9,3.5,29.5,6.9,45,10.5c2.5-19.9,4.9-38.9,7.3-57.7c-12.7-2.9-24.6-5.7-36.5-8.5C311.9,227.2,306.8,245.3,301.4,264.4z
	 M310.3,395.9c-17.1-4.2-33.6-8-49.9-12.3c-2.9-0.8-4-0.3-5.3,2.3c-5.6,11.5-11.5,22.8-17.2,34.2c-0.5,1-0.9,2-1.8,3.8
	c17.1,3.7,33.6,7.3,50.1,10.7c1,0.2,2.9-0.9,3.6-2c4.4-7,8.6-14,12.6-21.1C305.3,406.4,307.8,401,310.3,395.9z M194.5,353.1
	c7.5-16.3,14.8-32.2,22.1-47.9c-16.5-8.9-32.7-17.7-49-26.5c-2.7,5.1-5.2,10.3-8.2,15.2c-2.2,3.6-2.7,6.8-0.3,10.4
	c0.6,0.8,0.6,2.3,0.5,3.3c-0.4,3,0.7,4.8,3.6,6c2.7,1.1,5.8,2.3,7.8,4.4c6.2,6.7,11.4,14,11.1,23.8c-1.5,0.8-3,1.5-5.1,2.6
	C183,347.4,188.5,350.1,194.5,353.1z M160.4,189.6c12.8,9.4,25,18.2,37.1,27.1c11.1-16.7,21.6-32.5,32.1-48.4
	c-5.9-4.7-6-4.7-10.5-3.7c-0.4-4.8-5.4-9-10.9-9.2c-2.4-0.1-5.3,3.1-5.5,6.2c-9.1-5.2-11.9-5.6-17-0.3
	C177.2,170.2,169.2,179.7,160.4,189.6z M101.9,183.1c0.9,0.7,1.4,1.1,1.9,1.4c4.6,3.1,4.6,5.6-0.3,7.8c-2.9,1.3-3.9,4.8-7.7,5.4
	c-2,0.3-3.5,3.7-5.7,6.2c1.6,1.4,3.7,2.6,5,4.4c2,2.8,3,6.5,5.3,9c5.9,6.4,12.3,12.3,18.8,18.6c3.9-5.6,7.4-10.7,11.1-16
	c-2-0.7-3.6-1.3-6-2.3c2-0.7,3.1-1.1,3.9-1.4c-1.7-9.5-6.1-17.4-14.5-23.5c1.6-0.2,3.1-0.8,4-0.3c3.4,2,7.3,3.2,8.9,7.5
	c2,5.2,4.4,10.3,6.8,15.7c6.8-8.8,13.4-17.3,19.9-25.8c-3.9-3.6-7.5-6.9-10.8-9.9c-2.8,4.1-5.4,8-8.3,11.7c-0.5,0.7-2.2,0.4-3.3,0.6
	c-0.2-1.1-0.8-2.5-0.4-3.4c2-4.8,4.3-9.5,6.6-14.5c-4.2-4.5-8.8-9.4-13.6-14.6C116.1,167.7,109.1,175.3,101.9,183.1z M363.2,400.1
	c-15.5-1.3-30.2-2.6-44.9-3.6c-1.1-0.1-2.8,1.4-3.5,2.6c-5.4,9.8-10.7,19.7-16,29.5c-1.3,2.3-2.8,4.5-4.4,7.2
	c1.6,0.3,2.6,0.6,3.6,0.7c8.8,0.7,17.7,1.4,26.5,2c14.7,1.1,14.9,1.2,22.8-11.3C352.9,418.4,357.9,409.3,363.2,400.1z M52.3,247.7
	c9.4-15.7,18.3-30.4,27-45C72.3,192,65.2,181,58,170.1c0,0-0.4,0.3-0.6,0.6c-9.7,12.4-17.8,25.7-24.6,39.9c-0.6,1.3-0.4,3.7,0.4,5
	C39.4,226.2,45.8,236.7,52.3,247.7z M324.9,149.2c-8.9-3.4-17.2-6.6-25.7-9.8c-7.4,16-14.8,32-22.4,48.5c12.3,4.7,24,9.2,36.5,14
	C317.3,183.7,321.1,166.4,324.9,149.2z M353.6,210.9c0.1-1.2,0.4-2.4,0.4-3.5c0.3-15.3,0.5-30.5,1-45.8c0.1-4.3-0.9-6.1-5.5-6.7
	c-6.5-0.8-12.9-2.8-19.3-4.2c-3.9,17.6-7.7,34.9-11.6,52.8c11.2,2.6,22.2,5.1,33.2,7.6C352.3,211.1,352.8,211,353.6,210.9z
	 M214.8,456.5c14.8,3.2,29.4,6.4,44,9.5c0.7,0.1,1.6-0.1,2.1-0.5c9-7.2,16.5-15.7,23.2-24.7c-16.4-4.1-32.5-8.1-48.6-12
	c-1-0.2-2.7,0.7-3.3,1.6C226.4,438.7,221,447.1,214.8,456.5z M237.6,167c11.6,6.3,22.8,12.4,34.3,18.6c7.7-16.7,15.1-32.7,22.4-48.6
	c-8.2-4.4-15.9-8.6-24.2-13.1c-1.8,5.5-10.6,7.7-6.2,16c-2.4,0-4.3,0-6.1,0c1.1,0.9,2.5,0.4,3.2,0.9c1.4,0.9,3.5,2.5,3.4,3.6
	c-0.2,2.2-1.6,4.4-2.9,6.3c-0.3,0.4-2.5-0.1-3.6-0.6c-2-0.9-7.6,0-9.2,2C245,156.9,241.5,161.7,237.6,167z M70.8,334.1
	c0.8-1.7,1.3-2.3,1.3-2.9c0.1-3.4,0.2-6.9,0.1-10.3c-0.1-5.1-0.1-10.2-0.7-15.3c-0.4-3.2-2.2-6.2-2.5-9.4c-0.2-2.3,1.1-4.8,1.7-7.2
	c3.1,0.9,4-0.7,3.8-3.4c-0.1-2.2,0.8-5.2-0.3-6.4c-6.3-7.1-13-13.9-19.8-20.9c-6.3,13.5-11,27.3-14.1,41.7c-0.2,0.8,0.4,2,1,2.7
	C51,313,60.6,323.2,70.8,334.1z M93.7,274.5c0-2-0.7-4.3,0.1-5.3c3.5-4.1,4-9.1,5.1-14c0.6-2.8-1.6-6-4.1-5.3
	c-1.2,0.3-2,1.9-3.4,3.3c-0.5-1.2-0.8-2.2-1.2-3.2c-0.7-1.8-1.5-3.5-2.1-5.3c-0.6-1.8-1.2-3.6-1.8-5.5c-0.8-2.4,1.4-5.6-2.3-7.1
	c-0.3-0.1-0.3-1.5-0.1-2.1c2.6-7.1,3.9-14.1-1.5-21.3c-0.2,0.4-0.5,0.9-0.7,1.4c-7.8,13.2-15.7,26.5-23.3,39.8
	c-0.6,1-0.2,3.4,0.6,4.3c6.2,6.9,12.6,13.7,18.9,20.4c0.6,0.6,1.5,1.3,2.2,1.3c4.5-0.3,8.9-0.7,13.4-1.1
	C93.7,274.7,93.9,274.4,93.7,274.5z M161.9,436.8c15.5,5.7,30.5,11.2,45.4,16.7c0.7,0.3,2.2-0.2,2.7-0.8
	c6.1-8.5,12.1-17.1,18.3-25.9c-11.3-4-21.6-7.7-30.5-10.9c-5.4,3.4-9.9,6-14.2,8.9c-5.6,3.8-10.2-1-15.5-1.6
	C166.2,427.5,164.3,431.7,161.9,436.8z M34.5,295.5c5.2-13.9,10-26.8,14.9-39.6c0.8-2,0.7-3.3-0.6-5.3c-6.2-9.2-12.1-18.5-18.1-27.8
	c-0.6-1-1.2-1.9-1.8-2.9c-0.5,0-0.9-0.1-1.4-0.1c-3.2,11.9-6.5,23.7-9.4,35.7c-0.8,3.3-2,7.5-0.7,10.1
	C22.6,275.7,28.7,285.4,34.5,295.5z M231,421.9c7-13.7,13.7-27,20.6-40.6c-1.2-0.5-2-0.9-2.9-1.2c-11-4-22-7.8-33-12
	c-5.6-2.1-11-4.7-16.5-7c-0.7-0.3-1.6-0.1-2.3-0.1c0.1,0.8,0,1.8,0.5,2.3c1.8,1.8,3.6,3.6,5.7,5.1c5.8,4.2,12.7,7,16,14.1
	c0.7,1.5,2.2,3,3.7,3.8c5.6,3,6.2,4.8,2.8,10.3c-2.5,4-5.9,5.5-10.4,6.5c-5.5,1.2-10.6,4-15.9,6.1c0.1,0.5,0.2,1,0.3,1.6
	C209.7,414.4,220,418,231,421.9z M360.5,157.2c-0.1,1.1-0.2,2.2-0.2,3.2c-0.3,14.2-0.4,28.5-0.8,42.7c-0.2,8.9-0.3,9.1,8.3,10.1
	c7.8,0.9,15.8,1,24.5,1.6c-0.9-3-1-5.4-2.2-7c-1.2-1.6-4.9-2-5.2-3.5c-0.9-4.2,3.2-1.7,4.8-2.8c0.1-0.1,0.2-0.2,0.5-0.5
	c-0.3-2.1-0.6-4.4-0.9-6.4c-2.2,0.4-4.1,0.7-6.3,1.1c1.8-5.9,1.8-5.9-1.9-7.6c3.1-2.2,4.5-4.5,2.9-8.6c-1-2.5-1.3-4.5-4.4-4.6
	c-0.4,0-1.1-0.8-1.2-1.3c-0.5-2.7-1.1-5.4-1.1-8.1c0-1.3,1.5-2.6,2.1-3.5c1.5,1.5,2.2,2.3,3,3.2c0.3-0.2,0.6-0.5,1-0.7
	c-0.5-1.9-1-3.9-1.4-5.6C374.7,158.2,367.7,157.7,360.5,157.2z M367.1,277.2c0.8-1.8,1.3-3.3,2.1-4.6c1.2-2,2.2-4.5,4-5.5
	c3-1.7,5.3-3.6,6.5-6.8c1.1-2.8,2.4-4.1,5.9-2.2c1.9,1.1,5.2,0.8,7.4-0.1c1-0.4,0.9-3.7,1.4-6.1c-4.2,0.8-7.6,1.5-11.9,2.3
	c-1.7-2-3.6-6.2-8.2-4.5c-0.8-3.4-1.9-6.3-1.9-9.1c0-3.1,1.2-6.1,1.9-9.1c0.2-0.8,0.1-1.6,0.1-2.3c-0.6-6.1,1.4-7.8,7.4-6.5
	c3.1,0.6,6.2,0.8,9.3,1.2c0.3,0,0.7-0.2,1.1-0.3c0-1.2,0-2.2,0-3c-11.3-0.8-22.3-1.6-33.2-2.4c-2.4,19-4.8,38.1-7.2,57.3
	C357,275.9,361.9,276.5,367.1,277.2z M347.1,437.6c0.5,0.2,0.7,0.4,0.9,0.4c11.1-1.6,22.1-3.2,33.2-5c1.1-0.2,2.3-1.2,3.1-2.2
	c4.3-5.3,8.3-10.8,11.7-16.9c3.7-6.6,0-11.6-0.3-16.9c-8.2,0.6-15.8,1.3-23.5,1.8c-2.1,0.1-3.2,0.8-4.1,2.7
	c-4.4,8.3-8.8,16.6-13.5,24.7C352.3,430.1,349.6,433.8,347.1,437.6z M268.5,467.2c0.2,0.1,0.9,0.5,1.6,0.5
	c7.8,0.6,15.6,0.8,23.4,1.8c10.3,1.3,18.8-1.4,25.8-9.2c4.8-5.3,10.1-10.2,15.3-15.3c-14.5-1.3-28.1-2.5-41.7-3.6
	c-1.1-0.1-2.6,0.5-3.3,1.3C282.5,450.8,275.5,459,268.5,467.2z M64,374.3c2-11.8,3.8-22.5,5.4-33.3c0.1-1-0.7-2.4-1.5-3.2
	c-4.3-4.2-8.8-8.1-13.1-12.4c-5.4-5.4-10.6-11-15.9-16.6c-0.4,0-0.9,0.1-1.3,0.1c-0.3,11.5-0.6,23-0.8,34.5c0,1,0.4,2.1,1,2.8
	C46.6,355.7,55.2,364.9,64,374.3z M90.9,95.2c-12.5,9.2-23.6,19.2-33.9,30c-3,3.1-5,6-3.7,10.6c2.2,7.5,3.9,15.1,5.3,20.6
	c7.3-6.4,14.7-12.8,21.9-19.4c1.7-1.5,2.6-4,3.7-6.1c1.1-2.1,1.8-4.3,2.9-6.3c2.2-4,4.8-7.9,6.9-11.9c0.6-1.1,0.1-2.8,0.1-4.5
	c-3.1,4.1-6.2,7.6-8.7,11.5c-2.4,3.6-4.2,7.6-6.2,11.4c-0.6-0.3-1.2-0.7-1.8-1c2.2-4.2,4.4-8.5,6.8-12.7c1.3-2.2,3.3-4,4.4-6.4
	c0.9-1.9,0.5-4.4,3.7-4.4c0.3,0,0.9-1.3,0.8-1.8C92.4,101.6,91.7,98.6,90.9,95.2z M28.8,205.8c0.5-0.7,0.7-1,0.9-1.4
	c7.2-13.8,15.2-27.1,25-39.1c0.6-0.7,0.9-2,0.7-2.8c-2.7-8.5-5.4-16.9-8.2-25.4c-9.4,11.8-17.8,24.5-24.7,38.1c-0.4,0.9-0.5,2-0.4,3
	C22.9,187.5,25.1,196.5,28.8,205.8z M318.6,391.2c12.4,0.9,24.4,1.9,36.3,2.6c10.7,0.7,10.7,0.6,14.7-9.5c0.5-1.3,1-2.7,1.9-5.2
	c-6.2,0.3-11.8,0.2-17.4,1c-4.1,0.6-9.1-0.8-11.5-4.3c-1.9-2.8-4.2-5.2-6.3-7.9c-0.8-1.1-1.6-2.3-2-3.5c-0.8-2.6-1.3-5.2-1.9-7.9
	c-0.3,0.1-0.6,0.2-1,0.2C327.4,368.1,323.2,379.2,318.6,391.2z M205.2,459.2c-15.6-6-30.5-11.8-45.6-17.6c-2.6,5.6-5.1,11.2-8,17.5
	c12.2,4.5,23.9,8.8,35.6,12.9c1.1,0.4,2.9,0,3.8-0.7C195.8,467.4,200.4,463.4,205.2,459.2z M432.4,264.2
	c-1.6-11.9-3.1-23.3-4.8-34.7c-0.1-0.9-1.1-1.7-1.8-2.5c-1.7-1.9-3.7-3.6-5-5.7c-2.6-4.1-4-4.4-6.7-0.5c-1.5,2.2-3,3.3-5.8,2.9
	c-0.9-0.1-2,0.4-3.4,0.7c1,4.3-0.6,7.3-4.2,9.5c-1,0.6-1.7,2.4-1.7,3.7c0,5.2,0.4,10.4,0.6,15.7c8.5-2.1,16.8-4.5,25.4-5.5
	c0,2.2-0.5,3.7,0.1,4.6c1.5,2.3,0.8,4.1-0.2,6.2c-1.4,2.9-0.4,4.5,2.8,5.1C428.9,263.9,430.1,264,432.4,264.2z M451,242.3
	c-0.4,0.1-0.8,0.3-1.2,0.4c-3.1-5.1-7.4-9.9-9-15.4c-1.6-5.6-6-7-9.7-10.4c0,6.7,2.4,11.2,8.1,13.7c-0.9,0-1.8,0-2.7,0
	c0.9,3.8,0.9,3.8-1.4,10.3c-0.1,0.3,0,0.8,0.1,1.2c0.8,7.5,1.7,15,2.2,22.6c0.2,3.7,2.2,5.2,5.3,5.1c3.1-0.1,4.1-2,4-5.3
	c-0.2-5.4,2.8-7.2,8.1-5.9c2.3,0.6,4.8,0.4,7.8,0.7c-0.9-5.8-1.6-10.9-2.4-16c-0.4-2.3-0.3-5.4-1.7-6.6c-3.7-3.2-4.3-7.4-4.8-11.5
	c-0.3-3.3-1.6-3-3.8-2.6c-0.2,3.4-0.5,6.4-0.7,9.6c0.5,0.6,1.3,1.6,2.1,2.6c-0.7,0.4-1.3,0.9-1.4,0.9
	C450.4,237.9,450.7,240.1,451,242.3z M147,42.9c-8.2,3.2-16,6-23.6,9.4c-7.2,3.3-14.1,7.2-21.1,10.9c-1,0.5-2.1,1.4-2.4,2.4
	c-1.6,6.1-3,12.4-4.5,18.5c0.4,0.1,0.8,0.3,1.2,0.4c0.5-0.3,1-0.7,1.6-1c15.2-8.1,28.6-19.5,45.2-25c0.8-0.2,1.6-1.3,1.8-2.1
	C145.9,52.2,146.3,48,147,42.9z M162.8,275.8c-14.5-10.7-28.5-21-42.6-31.4c-2.1,3.4-4.3,6.9-7.1,11.4c5.5,0.6,10.1,1.1,14.9,1.6
	c-1.5,1.3-3.1,2.3-4.2,3.6c-0.9,1.1-1.2,2.7-1.8,4.1c1.9,0,3.8,0.2,5.7,0c0.3,0,0.6-1,1.3-2.2c1,2.1,1.5,3.3,2.1,4.4
	c1,1.8,1.8,3.8,3.2,5.2c6.7,6.1,13.7,12,20.5,17.9C157.3,285.9,160.1,280.8,162.8,275.8z M354.3,102.4c2.2,16.2,4.5,32.5,6.8,49.2
	c6,0.4,12.4,0.8,19.1,1.3c-0.2-1.4-0.2-2-0.4-2.6c-5.1-13.9-10.1-27.8-15.4-41.6C361.7,101.9,360.8,101.7,354.3,102.4z M198.3,475.6
	c5.6,1.3,12.9,3.2,20.2,4.8c3.9,0.9,8.2,2.8,11.8,1.9c8.3-1.9,15.8-6.2,22.8-11.1c-13.7-3.5-27.1-6.9-40.5-10.3
	c-0.8-0.2-2.2,0.1-2.7,0.7C205.9,466.4,202,471.2,198.3,475.6z M119.9,155.6c-1.8-2.5-3.4-5.2-5.4-7.5c-2.8-3.2-6.7-2.9-9.7,0.3
	c-1.5,1.6-3.2,2.9-4.9,4.3c-2.3,2-5.2,3.7-6.9,6.2c-2.9,4.1-5.1,8.6-7.5,13c-2.2,3.9-0.5,9.7,3.3,12c1.2,0.7,2,2,2.9,3.1
	c4.4-5.1,9-10.5,13.7-15.7C110.1,166,115,160.9,119.9,155.6z M110.7,429.2c0.9,3.4,0.7,7.5,2.5,8.6c10.8,6.6,22.1,12.6,33.5,18.9
	c2.9-6.4,5.5-12,8.1-17.7c-5.8-2.9-11.2-5.7-16.7-8.3c-1.1-0.5-2.5-0.4-3.8-0.3c-5.3,0.3-10.4,0.6-14.2-4.3
	c-0.8-1.1-2.1-1.9-4.1-3.5c1.4,3.5,2.4,5.9,3.9,9.5C116.6,431,114.3,430.3,110.7,429.2z M52.9,120.8c0.5-0.1,0.8,0,0.9-0.2
	c11.8-10.3,23.5-20.6,35.2-31c0.7-0.6,1.3-1.6,1.4-2.5c0.6-5.8,1.1-11.6,1.7-18.2c-7.5,5.9-14.7,11.4-21.7,17.2
	c-4.2,3.5-8.6,7.1-11.5,11.6C54.8,104.6,53.5,112.7,52.9,120.8z M12.2,253.9c0.3-0.7,0.5-1.1,0.6-1.5C16.9,239.7,21,227,25,214.3
	c0.4-1.2,0-2.8-0.4-4c-1.7-5.4-3.6-10.8-5.4-16.3c-0.7-2.2-1.1-4.5-1.8-7.4C5.4,213.2,3.2,228.2,12.2,253.9z M15.4,275.8
	c-1.1,11-0.5,22,1.1,32.8c1.6,10.7,7.8,19.3,13.7,27.8c1.2-10.9,2.4-21.4,3.4-32c0.1-1.1-0.1-2.4-0.7-3.2
	C27.3,292.8,21.4,284.5,15.4,275.8z M337.6,107.3c0,2.3,0,3.9,0,5.5c2.2,0.4,4.1,0.8,6.1,1.2c-2.3,2.1-4.7,3.3-7.1,4.6
	c-0.8,0.5-2,1.2-2.1,1.9c-1.2,8.1-2.3,16.2-3.4,24.6c7.9,1.8,15.4,3.6,23.4,5.4c-0.3-4.6-0.6-8.4-0.9-12.7
	c-8.9,3.9-8.4-4.8-13.3-8.5c2.3-0.8,4.8-1.8,4.9-1.6c1.7,3.6,4.6,1.9,7.8,1.9c-1.8-9.6-3.5-19-5.2-27.7c-2.4,1.1-4.2,1.8-6,2.6
	c1.2,2.5,2.5,5.2,3.8,7.8c-0.4,0.3-0.8,0.5-1.2,0.8C342.4,111.3,340.3,109.6,337.6,107.3z M319,468.1c0.1,0.3,0.2,0.6,0.4,0.9
	c10.1-2.1,20.9-1.1,29.9-7.6c8.4-6.1,17.6-11.4,23.5-20.5c-7.5,0.9-14.7,2.3-22,2.5c-5.7,0.1-9.8,1.6-13.7,6.2
	C331.7,456.2,325.1,462,319,468.1z M368.1,102.8c0.4,1,0.9,2.1,1.4,3.3c5.1,13.8,10.3,27.5,15.2,41.3c1.9,5.4,1.7,5.5,7.1,4.4
	c0.8-5.1,1.7-10.1,2.3-15.1c0.2-1.9,0.1-4.2-0.8-5.8c-4.9-8.3-10.2-16.4-15.2-24.6C375.7,102.8,373.4,99.7,368.1,102.8z M308.1,86.9
	c-0.4-0.2-0.7-0.5-1.1-0.7c-12.5,9.5-22.7,21.3-33.2,33.6c7.5,4,14.5,7.7,21.2,11.3c-0.3-3.7-0.2-7.1-0.9-10.2
	c-1.1-5.1,0.8-9.5,3.1-13.6c1-1.8,3.9-2.4,5.8-3.7c1.2-0.8,2.8-1.6,3.4-2.8c1.4-2.7,0.4-4.9-2.3-6.2
	C305.6,91.9,306.9,89.4,308.1,86.9z M105.6,257.2c3.6-5.7,7.1-11.3,10.5-16.8c-6.3-5.9-12.3-11.5-18.5-17.4c-2,2.8-4,5.4-5.9,8.2
	c-3.4,5-0.9,13.6,4.7,15.6c2.2,0.8,3.4,1.7,3.7,4.2C100.5,254,101.9,256.5,105.6,257.2z M78.8,385.8c0.8-1.6,1.7-3.2,2.4-4.8
	c1.7-4.4,3.9-8.8,4.9-13.4c2-9.6-2.6-18.5-12.2-23.6c-1.1,8.8-1.9,17.3-3.3,25.8c-1.2,7.4,1.5,12.5,8,15.9
	C78.7,385.7,78.8,385.8,78.8,385.8z M269.5,73c-0.1,1-0.1,1.5-0.1,2c-0.2,3.2-1.9,5-5.1,5.5c-2.8,0.4-5.9,2.7-7.6-2.2
	c-0.9-2.8-5.5-3-8-0.9c-0.8,0.6-1.6,1.5-2.5,1.8c-4.9,1.5-9.8,2.8-14.8,4.2c-0.1,0.5-0.2,1.1-0.3,1.6c4.7,4.2,9.5,8.4,14.4,12.8
	c9.6-6.4,19.6-13.1,29.6-19.8C273.4,76.5,271.7,74.9,269.5,73z M388.1,158c1.5,13,6.8,24.7,7.3,37.3c1.1-1.4,2.2-2.8,3.3-4.3
	c2.6-3.3,3.1-7.5,6-10.9c2.2-2.7,1.9-7.8-1-11.3c-1.8-2.2-1-3.9,1.1-5.6c0.9,2.2,2.4,4.2,2.4,6.1c0,5.2,0.1,5.6,5.4,4.2
	c-1-1.2-2.2-2.2-2.7-3.4c-1.9-4.2-3.6-8.5-5.4-12.7c-0.3-0.6-1.1-1.2-1.7-1.2c-0.5,0-1.3,0.8-1.5,1.4c-0.6,1.5-0.9,3.1-1.5,5.2
	c-1.4-0.9-3-1.3-3.4-2.2C394.5,156.6,391.3,157.8,388.1,158z M371.8,393.9c9.4-1.2,18.1-2.2,26.7-3.5c1.1-0.2,2.4-1.2,2.9-2.2
	c1.5-2.8,2.7-5.8,3.8-8.4c-3.7-4.5-6.7,1.1-9.9-0.1c-3.1-6.9-3.1-7.1-10.8-5.2c-2.4,0.6-5.4,1.9-6.5,3.9
	C375.6,382.9,374.1,387.9,371.8,393.9z M39.5,357.4c2.4,19.7,13.9,33.7,28.7,46.2c-1-7.3-2-14.2-3-21c-0.1-0.8-0.9-1.6-1.5-2.2
	C55.6,372.8,47.6,365.2,39.5,357.4z M297.2,475.4c-8.2-0.7-16.3-0.9-24.3-2.1c-7.6-1.2-14.1-0.7-20.1,4.7c-2.8,2.5-6.5,3.9-10.4,6
	C269.6,487,284.7,484.5,297.2,475.4z M158.9,33.8c0.9-0.2,1.7-0.3,2.6-0.5c14-2.2,27.9-5,42-6.3c5.9-0.5,8.8-2.7,11.2-7.7
	c-1-0.1-1.8-0.2-2.5-0.2c-12.5,0.9-24.9,1.9-37.4,2.7C166.9,22.2,162.9,27.7,158.9,33.8z M220,102.8c-2.7,4.1-5.2,7.6-7.2,11.3
	c-0.5,1,0.2,3.9,0.8,4.1c1.8,0.4,3.7,0.2,4.9-2.2c1.2-2.5,2-6.6,6.3-5.6c4.7,1.1,7.9-0.9,11-4c2.9-2.8,3.2-5.9,0.5-8.7
	c-2.7-2.8-5.3-5.8-8.1-8.5c-1-0.9-3.2-2-4-1.5c-2.4,1.4-6.1,0.9-6.4,5.6C217.5,97.4,218,100.8,220,102.8z M162.7,52.2
	c0.3,0.3,0.5,0.6,0.8,0.9c3.3-2.4,7.1-4.3,9.7-7.3c2.3-2.6,4.6-4.4,7.8-5.4c2.9-0.9,5.7-1.8,8.5-2.8c2.8-1.1,5.6-2.3,8.4-3.5
	c-0.1-0.4-0.3-0.8-0.4-1.2c-0.6,0-1.3-0.1-1.9,0c-13.3,2.5-26.5,5.1-39.8,7.6c-0.7,0.1-1.7,0.5-1.9,1c-1.3,4.6-2.5,9.2-3.7,13.8
	c0.5,0.3,1,0.6,1.6,1c3.7-2.2,7.4-4.5,11.3-6.9C162.9,50.6,162.8,51.4,162.7,52.2z M22.1,162.1c8.3-11.2,16.1-21.7,23.7-32.2
	c0.7-1,1.1-2.3,1.3-3.5c0.6-6,1.1-12,1.7-18.3C38,125.1,26.9,141.7,22.1,162.1z M107.3,53.1c0.8,0.1,1.1,0.3,1.3,0.2
	c13.4-5.4,26.7-10.9,40-16.4c0.7-0.3,1.5-0.6,1.9-1.2c2.1-3.1,4-6.4,6.6-10.4C138.5,32.1,120,36.9,107.3,53.1z M306,136.2
	c6.4,2.3,12.8,4.7,19.6,7.2c1.1-7.8,2-14.9,3.1-22.7c-7.5,3-14.2,5.8-20.5,8.3C307.5,131.5,306.9,133.6,306,136.2z M279.2,105.1
	c-1-3.5-1.7-6.1-2.5-8.7c-0.5,0-1,0-1.5,0.1c-0.4,2.5-0.9,4.9-1.3,7.4c-0.4,1.4-1.5,2.7-2.7,3.9c-2.3,2.3-4.8,2-6-1
	c-1.2-3.1-2.1-6.3-3.2-9.4c-0.3-0.9-0.8-1.8-1.4-2.9c-1.8,1.3-3.2,2.3-3.7,2.6c-0.6,4.7-1.1,9.1,1.9,12c3,2.9,6.8,5,10.4,7.6
	C273,112.4,276.4,108.4,279.2,105.1z M169,171.6c-4.6-0.6-8.7-0.6-12.5-1.6c-5.1-1.4-8.2,1.5-12.2,4.2c4.4,4.1,8.3,7.8,12.4,11.7
	C160.9,180.9,164.8,176.4,169,171.6z M235,141.7c-4.4,0.3-7.5,0.5-10.7,0.7c2.8,1.4,5.7,2,8.6,2.8c0.8,0.2,1.4,1.5,2,2.3
	c-1,0.5-1.9,1.1-3,1.4c-0.6,0.1-1.4-0.3-1.3-0.3c-0.5,1.6-0.7,2.9-1.2,4.1c-1,2.2-2.1,4.2,0,6.4c1.4,1.3,2.6,2.8,4,4.4
	c3.8-5.3,7.4-10.2,11.4-15.8C240.9,145.3,237.3,143.2,235,141.7z M285.4,79.5c3.9,6.9-1.3,13.1-1.9,19.6c0.3,0.1,0.7,0.1,1,0.2
	c5.7-5.4,11.3-10.8,17.2-16.3c-1.9-1.3-3.6-2.5-5.3-3.7C291.4,75.6,291.4,75.6,285.4,79.5z M419.4,150.5c-1.3,0.6-2.9,0.9-3.6,1.8
	c-1.3,1.9-3.4,4.5-3,6.3c1.3,5.1,3.7,9.9,5.7,15.1c1.4-2.5,5.9-0.6,5.5-4.5c-0.3-2.6-1.2-5.1-1.9-7.7c-0.2-0.9-0.6-1.7-0.9-2.6
	c-0.1-0.3,0.1-0.7,0.1-1.2c1.1,0.2,2,0.4,3.3,0.6C422.9,155.6,421.2,153.1,419.4,150.5z M276.7,59.2c-1.9-2.9-4.4-3.7-7.6-3.4
	c-6.2,0.5-12.1,3.4-18.5,2.5c-0.3-0.1-0.8,0.5-0.5,0.3c1.2,2.8,2.2,5.3,3.4,8.1c2.7,0,7,2,8.2-3.6C266.7,61.9,272.3,63.2,276.7,59.2
	z M463.5,194.4c-2.5,2.2-4.6,4-6.5,5.9c-0.6,0.6-1.2,1.8-1.1,2.5c0.9,3.7,2.2,7.2,3.3,10.9c1.2-2.7,2.3-4.9,3.3-7.2
	c0.2,0.4,0.5,0.7,0.7,1.1c1.5-0.3,3.7-0.2,4.3-1.1C471.7,200.6,470.1,196.5,463.5,194.4z M479.6,296.6c0.6,0.1,1.2,0.1,1.8,0.2
	c0.4-2.7,1.3-5.4,1.2-8c-0.4-5.4-0.8-10.9-2.4-16c-1.2-3.7-4.3-6.8-6.6-10.2c-0.4,0.2-0.9,0.5-1.3,0.7c1.1,4,2.1,8,3.2,11.9
	c0.6,2.2,1.4,4.4,2.1,6.6c0.7,2.3,1.6,4.5,1.9,6.8C479.8,291.3,479.6,294,479.6,296.6z M392.6,118.5c0.8-1.8,1.9-3.4,2.3-5.1
	c0.3-1.4,0.3-3.3-0.5-4.3c-2.2-3-5.1-5.6-7.4-8.5c-2.2-2.7-4.3-3.5-6.7-0.6C384.4,106.2,388.5,112.4,392.6,118.5z M470.9,230.1
	c-2.3,3-6.6,3.1-6,7.3c0.7,5.1,1.8,10.1,2.7,15.3c3.3-0.9,4.6-2.7,4.3-6c-0.3-3.9,0-7.8-0.1-11.7
	C471.7,233.6,471.3,232.3,470.9,230.1z M219.9,9.4c-11.5,0.6-23.2,0.2-34.1,4.7c11.8,0,23.7,0,35.9,0
	C220.9,12.1,220.4,10.9,219.9,9.4z M162.3,422.5c-2,0-3.1,0-4.3,0c-3.5-0.2-7.1-0.7-7.9,4.4c-0.1,0.9-1.7,1.5-2.8,2.3
	c3.3,1.6,6.5,3.1,9.9,4.7C158.9,430.1,160.5,426.6,162.3,422.5z M348,294c5.1-3.7,10.4-7.5,16.1-11.6c-4.7-0.5-9.1-1-13.7-1.5
	C349.5,285.8,348.7,290.3,348,294z M8.5,286c0.3,0,0.6,0,1,0c-0.8-10.8,4.2-22.2-4.3-32.5C6.3,264.6,7.4,275.3,8.5,286z
	 M406.5,126.6c-0.6,0.3-1.1,0.6-1.7,0.9c0.5,1.5,1,2.9,1.5,4.4c0.4,1.5,1.4,3.1,1,4.4c-1.4,4.7,1.3,8.1,3,12.2
	c1.4-0.7,2.6-1.2,2.9-1.4c-1.3-5.6-2.2-10.6-3.6-15.6C409.1,129.7,407.6,128.2,406.5,126.6z M144.4,462.4c0-0.4-0.1-0.7-0.1-1.1
	c-9.8-5.1-19.6-10.2-30.1-15.7c0.8,1.3,0.9,1.9,1.3,2.1c8.8,5,17.6,10,26.5,14.9C142.5,463,143.6,462.5,144.4,462.4z M75.2,407.6
	c0.6-4-0.8-8.2,3.1-11.3c0.6-0.4,0.3-3-0.4-3.8c-1.8-2-4.2-3.5-6.3-5.2c-0.3,0.2-0.6,0.3-0.9,0.5C72.3,394.4,73.8,401,75.2,407.6z
	 M180.1,476.6c0.1-0.2,0.1-0.4,0.2-0.5c-9.7-3.9-19.3-7.9-29.1-11.7c-0.6-0.2-1.5,0.2-2.2,0.4c0.5,0.6,0.8,1.6,1.5,1.8
	c9,3.4,18,6.7,27,9.9C178.3,476.8,179.3,476.6,180.1,476.6z M256.3,39.4c4.4,0,9.2,0,14.4,0c0-0.7,0.1-1.8,0.2-3.1
	c-5.5-1-10.8-1.9-16.2-2.8C255.3,35.7,255.8,37.4,256.3,39.4z M97.8,98.6c4.5-5.3,8.5-10,12.5-14.7c-0.3-0.3-0.6-0.6-0.9-0.9
	c-2.9,1.8-5.9,3.7-8.8,5.5C95.8,91.6,95.6,92.1,97.8,98.6z M274.5,29.9c-5.7-1.4-11-6.2-17.9-1.6C263,28.8,268.5,31.4,274.5,29.9z
	 M322.4,474.9c-7.5-0.5-15-0.6-21.2,5.9C308.7,478.7,315.6,476.8,322.4,474.9z M291.3,20.3c-5.5-3.7-10.9-7.3-17.8-6.4
	C279.7,15.5,284.6,20.6,291.3,20.3z M32.6,357.1c1.1-9.1-4.3-13.9-8.7-19.2C26.6,344,29.4,350,32.6,357.1z M254.9,45.4
	c-0.1-0.4-0.2-0.7-0.3-1.1c-3.1,1.4-6.2,2.8-10.4,4.7c2.2,1.5,4.1,2.8,6,4.1c0.3-0.4,0.7-0.9,1-1.3c-0.9-0.5-1.8-1-3.5-1.8
	C250.8,48.1,252.8,46.8,254.9,45.4z M105.5,425.5c-0.4-0.1-0.7-0.3-1.1-0.4c-0.4,1-0.9,2-1.3,3c-1.6,0-3,0-5.3,0
	c3.1,2,5.4,3.5,7.7,5C105.5,430.3,105.5,427.9,105.5,425.5z M270,9.2c-5-0.6-9.3-1.1-13.7-1.7c0,0.4-0.1,0.8-0.1,1.2
	C260.6,9.4,264.6,12.8,270,9.2z M394.6,74.8c-0.5,0.6-1,1.2-1.5,1.8c3.8,2.7,7.6,5.4,11.4,8c0.3-0.3,0.5-0.7,0.8-1
	C401.8,80.7,398.2,77.7,394.6,74.8z M306,20.1c-2.9-4.5-6.4-5.6-10.8-3.7C299.3,17.8,302.6,19,306,20.1z M282,23.7
	c-3.4-1.4-6.1-2.6-9.6-4.1c0.3,1.6,0.4,3.4,0.7,3.5C275.8,23.6,278.4,26.1,282,23.7z M264.1,45.6c0,0.3,0,0.5-0.1,0.8
	c2.4,1.4,4.9,2.8,8.2,4.7c-0.6-2.7-0.9-4-1.1-5C268.5,45.9,266.3,45.7,264.1,45.6z M456.4,191.3c0.7,0.2,1.3,0.4,2,0.6
	c0.6-2.6,1.2-5.2,1.8-7.8c-0.6-0.1-1.1-0.3-1.7-0.4C457.9,186.2,457.1,188.8,456.4,191.3z M97.8,58.7c-0.3-0.4-0.7-0.9-1-1.3
	c-2.9,2.4-5.8,4.9-8.7,7.3c0.2,0.3,0.5,0.6,0.7,0.9C91.7,63.2,94.7,60.9,97.8,58.7z M104.1,98.2c-0.3-0.2-0.7-0.4-1-0.6
	c-1.2,2.4-5.7,2.7-3.6,8.1C101.3,102.6,102.7,100.4,104.1,98.2z"/>
</svg>
