<?xml version="1.0" encoding="utf-8"?>
<!-- Generator: Adobe Illustrator 24.0.2, SVG Export Plug-In . SVG Version: 6.00 Build 0)  -->
<svg version="1.1" xmlns="http://www.w3.org/2000/svg" xmlns:xlink="http://www.w3.org/1999/xlink" x="0px" y="0px"
	 viewBox="0 0 2372.9 493" style="enable-background:new 0 0 2372.9 493;" xml:space="preserve">
<style type="text/css">
	.st0{display:none;}
	.st1{display:inline;}
</style>
<g id="Layer_1" class="st0">
	<g id="Layer_3">
		<g class="st1">
			<path d="M119.5,486.8H38.7V6.2h80.8V486.8z"/>
			<path d="M312.4,203.3h184V6.2h80.8v480.7h-80.8V273H312.5v213.9h-80.8V6.2h80.8v197.1H312.4z"/>
			<path d="M933.1,122.5c-23.7-32.7-49.5-52.2-103.8-52.2c-49.5,0-78.7,22.3-78.7,62.7c0,46,36.2,64.1,103.1,78.7
				c96.8,20.9,147,57.1,147,143.5c0,71.8-48.1,137.9-163.7,137.9c-82.2,0-140-25.1-179.7-78.7l63.4-43.9
				c28.6,34.1,57.1,52.2,112.2,52.2c66.2,0,87.1-29.3,87.1-64.1c0-38.3-21.6-62-105.2-80.1c-92.7-19.5-145-64-145-145.5
				C669.8,60.5,717.2-0.1,830-0.1c76.6,0,130.3,25.8,164.4,78.7L933.1,122.5z"/>
		</g>
	</g>
	<g class="st1">
		<path d="M1197,437.9c0,17.8-5,31.5-15,40.9c-10,9.4-22.9,14.2-38.8,14.2c-15.5,0-28.3-4.6-38.4-13.9
			c-10.1-9.3-15.1-22.5-15.1-39.6v-17.1h22.7v17.1c0,10.5,2.8,18.5,8.3,23.9c5.5,5.4,12.9,8.2,22.2,8.2c9.3,0,16.8-2.7,22.5-8.2
			c5.7-5.4,8.6-13.5,8.6-24.2V300.9h23V437.9z"/>
		<path d="M1387.5,300.9v121.2c0,23-6.6,40.6-19.8,52.7c-13.2,12.1-30.7,18.2-52.4,18.2c-14.1,0-26.6-2.6-37.6-7.9
			c-11-5.3-19.6-13.2-25.8-23.9c-6.2-10.7-9.4-23.7-9.4-39.1V300.9h23v119.3c0,17.3,4.7,30.2,14.2,38.7c9.4,8.5,21.7,12.7,36.6,12.7
			c14.4,0,26.2-4,35.3-11.9c9.1-7.9,13.6-20,13.6-36.2V300.9H1387.5z"/>
		<path d="M1555.5,467.7c-6.1,8.3-14.1,14.6-24.1,18.9c-10,4.3-21,6.4-32.9,6.4c-12.5,0-24.3-2.4-35.3-7.2
			c-11.1-4.8-20.1-12.2-27.1-22.2c-7-10-10.7-22.2-11.1-36.6h24.6c0.2,14.6,5.1,25.8,14.8,33.4c9.7,7.7,21.4,11.5,35.2,11.5
			c11.9,0,21.8-2.8,29.4-8.4c7.7-5.6,11.5-13.2,11.5-22.9c0-8-2.5-14.4-7.6-19c-5.1-4.6-10.6-7.9-16.6-9.9c-6-2-14.6-4.3-25.8-7
			c-11.6-2.7-21.5-5.8-29.7-9.4c-8.2-3.6-15.1-8.9-20.6-16c-5.5-7.1-8.3-16.6-8.3-28.4c0-11.8,2.8-21.8,8.3-30
			c5.5-8.2,13.1-14.4,22.6-18.5c9.5-4.1,20.3-6.2,32.2-6.2c11.9,0,22.8,2.1,32.5,6.2c9.7,4.1,17.5,10.3,23.4,18.5
			c5.9,8.2,9,18,9.4,29.4h-23.5c-0.4-10.9-4.3-19.1-11.8-24.7c-7.5-5.6-17.2-8.4-29.2-8.4c-11.9,0-21.8,2.8-29.6,8.3
			c-7.8,5.5-11.6,13.6-11.6,24.3c0,7.5,2,13.5,5.9,17.9c3.9,4.5,8.8,7.8,14.7,10c5.9,2.2,13.7,4.5,23.5,6.8
			c13.7,3,24.9,6.1,33.6,9.2c8.6,3.1,16.2,8.2,22.6,15.2c6.4,7,9.6,16.6,9.6,28.8C1564.6,449.5,1561.5,459.4,1555.5,467.7z"/>
		<path d="M1732.3,321.5h-63.7v166.6h-23V321.5h-63.7v-20.6h150.3V321.5z"/>
		<path d="M1787.4,488.2h-23V300.9h23V488.2z"/>
		<path d="M1988,459.7c-7.1,10.6-16.7,18.8-28.6,24.6c-11.9,5.8-25.3,8.7-40.1,8.7c-18.7,0-34.8-4.5-48.3-13.6
			c-13.5-9.1-23.6-21.2-30.5-36.4c-6.9-15.2-10.3-31.7-10.3-49.5c0-17.8,3.5-34.1,10.4-48.8c7-14.7,17.3-26.4,31-35.2
			c13.7-8.7,30.2-13.1,49.5-13.1c21.4,0,39,5.5,52.8,16.5c13.8,11,21.8,26.6,23.9,46.9h-24.3c-1.6-13-7.3-23.3-17-30.8
			c-9.7-7.5-21.9-11.2-36.5-11.2c-14.1,0-26.1,3.4-36.1,10.3c-10,6.9-17.5,16-22.6,27.6c-5.1,11.5-7.6,24-7.6,37.6
			c0,13.9,2.6,26.8,7.8,38.7c5.2,11.9,12.8,21.4,23,28.6c10.2,7.2,22.5,10.8,36.9,10.8c15.5,0,28.2-4.2,38.1-12.7
			c9.9-8.5,15-20.6,15.4-36.2h24.1C1998.8,436.7,1995.1,449.1,1988,459.7z"/>
		<path d="M2039.1,488.2V300.9h120.4v20.6h-97.4v61.5h90.1v20.9h-90.1v63.7h102.4v20.6H2039.1z"/>
	</g>
	<g class="st1">
		<path d="M1232.8,187.2c-6.6,9.1-15.4,16-26.4,20.7c-10.9,4.7-23,7-36,7c-13.7,0-26.6-2.6-38.7-7.9c-12.1-5.3-22-13.4-29.7-24.3
			c-7.7-10.9-11.8-24.3-12.2-40.2h27c0.2,16,5.6,28.2,16.3,36.6c10.6,8.4,23.5,12.6,38.5,12.6c13.1,0,23.8-3.1,32.2-9.2
			c8.4-6.2,12.6-14.5,12.6-25.1c0-8.8-2.8-15.7-8.4-20.8c-5.6-5.1-11.6-8.7-18.2-10.8c-6.5-2.1-16-4.7-28.3-7.6
			c-12.7-2.9-23.5-6.3-32.5-10.3c-9-3.9-16.5-9.8-22.6-17.6c-6.1-7.8-9.1-18.2-9.1-31.1c0-12.9,3-23.8,9.1-32.8
			c6.1-9,14.3-15.7,24.8-20.2c10.5-4.5,22.2-6.7,35.3-6.7c13.1,0,25,2.2,35.6,6.7c10.6,4.5,19.2,11.2,25.6,20.2
			c6.4,9,9.9,19.7,10.3,32.2h-25.8c-0.4-11.9-4.7-21-12.9-27.1c-8.2-6.2-18.9-9.2-31.9-9.2c-13.1,0-23.9,3-32.4,9.1
			c-8.5,6.1-12.7,14.9-12.7,26.7c0,8.2,2.1,14.8,6.4,19.6c4.3,4.9,9.7,8.5,16.1,11c6.4,2.4,15,4.9,25.8,7.5
			c15,3.3,27.3,6.7,36.8,10.1c9.5,3.4,17.7,9,24.8,16.7c7,7.7,10.6,18.2,10.6,31.5C1242.8,167.2,1239.4,178.1,1232.8,187.2z"/>
		<path d="M1324.4,200.7c-15.1-9.5-26.9-22.4-35.3-38.8c-8.4-16.4-12.6-34.7-12.6-54.8c0-20.1,4.2-38.4,12.6-54.8
			c8.4-16.4,20.1-29.3,35.2-38.7c15-9.4,32.2-14.1,51.6-14.1c19.3,0,36.5,4.7,51.6,14.1c15,9.4,26.8,22.3,35.2,38.7
			c8.4,16.4,12.6,34.7,12.6,54.8c0,20.3-4.2,38.6-12.5,55c-8.3,16.3-20,29.2-35,38.7c-15,9.5-32.2,14.2-51.6,14.2
			C1356.8,214.9,1339.5,210.2,1324.4,200.7z M1336.7,34.4c-11,7-19.5,16.8-25.5,29.3c-6,12.5-8.9,26.8-8.9,42.8
			c0,16.4,3.1,31,9.4,43.7c6.3,12.7,15,22.6,26.4,29.6c11.3,7,24.3,10.6,39,10.6c14.7,0,27.4-3.5,38.2-10.6
			c10.8-7,19.2-16.8,25.1-29.3c5.9-12.5,8.8-26.7,8.8-42.5c0-16.4-3.1-31-9.2-43.7c-6.2-12.7-14.8-22.6-25.9-29.7
			c-11.1-7.1-24-10.7-38.7-10.7C1360.6,23.8,1347.7,27.3,1336.7,34.4z"/>
		<path d="M1683.3,178.4c-7.8,11.6-18.3,20.6-31.4,27c-13.1,6.3-27.7,9.5-44,9.5c-20.5,0-38.2-5-52.9-14.9
			c-14.8-10-25.9-23.2-33.4-39.9c-7.5-16.6-11.3-34.7-11.3-54.2c0-19.5,3.8-37.4,11.4-53.5c7.6-16.1,19-29,34-38.5
			c15-9.6,33.1-14.4,54.2-14.4c23.4,0,42.7,6,57.9,18c15.1,12,23.9,29.2,26.2,51.4h-26.7c-1.8-14.3-8-25.5-18.6-33.7
			c-10.7-8.2-24-12.3-40-12.3c-15.4,0-28.6,3.8-39.6,11.3c-10.9,7.5-19.2,17.6-24.8,30.2c-5.6,12.6-8.4,26.3-8.4,41.2
			c0,15.2,2.8,29.4,8.5,42.4c5.7,13,14.1,23.4,25.2,31.4c11.1,7.9,24.6,11.9,40.4,11.9c17,0,30.9-4.6,41.8-13.9
			c10.8-9.3,16.5-22.5,16.9-39.7h26.4C1695.1,153.2,1691.1,166.8,1683.3,178.4z"/>
		<path d="M1765.9,209.6h-25.2V4.5h25.2V209.6z"/>
		<path d="M1948.5,154.2h-94.7l-22,55.4h-26.4L1889,4.5h25.2l83.2,205.2h-27L1948.5,154.2z M1939.7,131.4l-38.4-97l-38.4,97H1939.7z
			"/>
		<path d="M2164.5,209.6h-129V4.5h25.2v182.6h103.8V209.6z"/>
	</g>
	<g class="st1">
		<path d="M2372.9,369.4v14.8l-100.3,30.4l100.3,30.6v14.8L2249.8,493v-16.2l101-25l-101-30.3v-14.8l101.1-30.3l-101.1-25v-15.3
			L2372.9,369.4z"/>
		<path d="M2372.9,313.4h-123.1v-79.1h13.5v64h40.5V239h13.7v59.3h41.9v-67.4h13.5V313.4z"/>
		<path d="M2372.9,205.4h-123.1v-79.1h13.5v64h40.5V131h13.7v59.3h41.9v-67.4h13.5V205.4z"/>
		<path d="M2311.7,63.7l19.5,18.6h41.7v15.1h-123.1V82.3h62.4l-62.4-57.7V5.3l50.5,47.8l72.6-51.7v18.8L2311.7,63.7z"/>
	</g>
	<g class="st1">
		<path d="M57.8,480.9H0V10.2h57.8V480.9z"/>
		<path d="M552.7,480.9h-57.8V269.8H246.8v211.1h-57.8V10.2h57.8V218h248.1V10.2h57.8V480.9z"/>
		<path d="M981.7,429.5c-15.2,20.8-35.4,36.6-60.5,47.4C896,487.6,868.5,493,838.4,493c-31.4,0-61-6.1-88.8-18.2
			c-27.8-12.1-50.5-30.7-68.2-55.8c-17.7-25.1-27-55.8-27.9-92.1h61.9c0.4,36.8,12.9,64.8,37.3,84c24.4,19.3,53.9,28.9,88.4,28.9
			c30,0,54.7-7.1,74-21.2c19.3-14.1,28.9-33.3,28.9-57.5c0-20.2-6.4-36.1-19.2-47.7c-12.8-11.7-26.7-19.9-41.7-24.9
			c-15-4.9-36.6-10.8-64.9-17.5c-29.1-6.7-54-14.6-74.6-23.5c-20.6-9-37.9-22.4-51.8-40.3C678,189.3,671,165.6,671,136
			c0-29.6,6.9-54.7,20.8-75.3c13.9-20.6,32.8-36.1,56.8-46.4c24-10.3,51-15.5,81-15.5c30,0,57.3,5.2,81.7,15.5
			c24.4,10.3,44,25.8,58.8,46.4c14.8,20.6,22.6,45.3,23.5,74h-59.2c-0.9-27.3-10.8-48.1-29.6-62.2c-18.8-14.1-43.3-21.2-73.3-21.2
			c-30,0-54.8,7-74.3,20.8c-19.5,13.9-29.2,34.3-29.2,61.2c0,18.8,4.9,33.9,14.8,45c9.9,11.2,22.2,19.6,37,25.2
			c14.8,5.6,34.5,11.3,59.2,17.1c34.5,7.6,62.6,15.4,84.4,23.2c21.7,7.8,40.7,20.6,56.8,38.3c16.1,17.7,24.2,41.8,24.2,72.3
			C1004.5,383.6,996.9,408.6,981.7,429.5z"/>
	</g>
</g>
<g id="Layer_4">
	<g>
		<path d="M691.1,437.9c0,17.8-5,31.5-15,40.9c-10,9.4-22.9,14.2-38.8,14.2c-15.5,0-28.3-4.6-38.4-13.9
			c-10.1-9.3-15.1-22.5-15.1-39.6v-17.1h22.7v17.1c0,10.5,2.8,18.5,8.3,23.9c5.5,5.4,12.9,8.2,22.2,8.2c9.3,0,16.8-2.7,22.5-8.2
			c5.7-5.4,8.6-13.5,8.6-24.2V300.9h23V437.9z"/>
		<path d="M881.5,300.9v121.2c0,23-6.6,40.6-19.8,52.7c-13.2,12.1-30.7,18.2-52.4,18.2c-14.1,0-26.6-2.6-37.6-7.9
			c-11-5.3-19.6-13.2-25.8-23.9c-6.2-10.7-9.4-23.7-9.4-39.1V300.9h23v119.3c0,17.3,4.7,30.2,14.2,38.7c9.4,8.5,21.7,12.7,36.6,12.7
			c14.4,0,26.2-4,35.3-11.9c9.1-7.9,13.6-20,13.6-36.2V300.9H881.5z"/>
		<path d="M1049.5,467.7c-6.1,8.3-14.1,14.6-24.1,18.9c-10,4.3-21,6.4-32.9,6.4c-12.5,0-24.3-2.4-35.3-7.2
			c-11.1-4.8-20.1-12.2-27.1-22.2c-7-10-10.7-22.2-11.1-36.6h24.6c0.2,14.6,5.1,25.8,14.8,33.4c9.7,7.7,21.4,11.5,35.2,11.5
			c11.9,0,21.8-2.8,29.4-8.4c7.7-5.6,11.5-13.2,11.5-22.9c0-8-2.5-14.4-7.6-19c-5.1-4.6-10.6-7.9-16.6-9.9c-6-2-14.6-4.3-25.8-7
			c-11.6-2.7-21.5-5.8-29.7-9.4c-8.2-3.6-15.1-8.9-20.6-16c-5.5-7.1-8.3-16.6-8.3-28.4c0-11.8,2.8-21.8,8.3-30
			c5.5-8.2,13.1-14.4,22.6-18.5c9.5-4.1,20.3-6.2,32.2-6.2c11.9,0,22.8,2.1,32.5,6.2c9.7,4.1,17.5,10.3,23.4,18.5
			c5.9,8.2,9,18,9.4,29.4h-23.5c-0.4-10.9-4.3-19.1-11.8-24.7c-7.5-5.6-17.2-8.4-29.2-8.4c-11.9,0-21.8,2.8-29.6,8.3
			c-7.8,5.5-11.6,13.6-11.6,24.3c0,7.5,2,13.5,5.9,17.9c3.9,4.5,8.8,7.8,14.7,10c5.9,2.2,13.7,4.5,23.5,6.8
			c13.7,3,24.9,6.1,33.6,9.2c8.6,3.1,16.2,8.2,22.6,15.2c6.4,7,9.6,16.6,9.6,28.8C1058.6,449.5,1055.6,459.4,1049.5,467.7z"/>
		<path d="M1226.3,321.5h-63.7v166.6h-23V321.5H1076v-20.6h150.3V321.5z"/>
		<path d="M1281.4,488.2h-23V300.9h23V488.2z"/>
		<path d="M1482,459.7c-7.1,10.6-16.7,18.8-28.6,24.6c-11.9,5.8-25.3,8.7-40.1,8.7c-18.7,0-34.8-4.5-48.3-13.6
			c-13.5-9.1-23.6-21.2-30.5-36.4c-6.9-15.2-10.3-31.7-10.3-49.5c0-17.8,3.5-34.1,10.4-48.8c7-14.7,17.3-26.4,31-35.2
			c13.7-8.7,30.2-13.1,49.5-13.1c21.4,0,39,5.5,52.8,16.5c13.8,11,21.8,26.6,23.9,46.9h-24.3c-1.6-13-7.3-23.3-17-30.8
			c-9.7-7.5-21.9-11.2-36.5-11.2c-14.1,0-26.1,3.4-36.1,10.3c-10,6.9-17.5,16-22.6,27.6c-5.1,11.5-7.6,24-7.6,37.6
			c0,13.9,2.6,26.8,7.8,38.7c5.2,11.9,12.8,21.4,23,28.6c10.2,7.2,22.5,10.8,36.9,10.8c15.5,0,28.2-4.2,38.1-12.7
			c9.9-8.5,15-20.6,15.4-36.2h24.1C1492.8,436.7,1489.1,449.1,1482,459.7z"/>
		<path d="M1533.1,488.2V300.9h120.4v20.6h-97.4v61.5h90.1v20.9h-90.1v63.7h102.4v20.6H1533.1z"/>
	</g>
	<g>
		<path d="M726.9,187.2c-6.6,9.1-15.4,16-26.4,20.7c-10.9,4.7-23,7-36,7c-13.7,0-26.6-2.6-38.7-7.9c-12.1-5.3-22-13.4-29.7-24.3
			c-7.7-10.9-11.8-24.3-12.2-40.2h27c0.2,16,5.6,28.2,16.3,36.6c10.6,8.4,23.5,12.6,38.5,12.6c13.1,0,23.8-3.1,32.2-9.2
			c8.4-6.2,12.6-14.5,12.6-25.1c0-8.8-2.8-15.7-8.4-20.8c-5.6-5.1-11.6-8.7-18.2-10.8c-6.5-2.1-16-4.7-28.3-7.6
			c-12.7-2.9-23.5-6.3-32.5-10.3c-9-3.9-16.5-9.8-22.6-17.6c-6.1-7.8-9.1-18.2-9.1-31.1c0-12.9,3-23.8,9.1-32.8
			c6.1-9,14.3-15.7,24.8-20.2c10.5-4.5,22.2-6.7,35.3-6.7c13.1,0,25,2.2,35.6,6.7c10.6,4.5,19.2,11.2,25.6,20.2
			c6.4,9,9.9,19.7,10.3,32.2h-25.8c-0.4-11.9-4.7-21-12.9-27.1c-8.2-6.2-18.9-9.2-31.9-9.2c-13.1,0-23.9,3-32.4,9.1
			c-8.5,6.1-12.7,14.9-12.7,26.7c0,8.2,2.1,14.8,6.4,19.6c4.3,4.9,9.7,8.5,16.1,11c6.4,2.4,15,4.9,25.8,7.5
			c15,3.3,27.3,6.7,36.8,10.1c9.5,3.4,17.7,9,24.8,16.7c7,7.7,10.6,18.2,10.6,31.5C736.8,167.2,733.5,178.1,726.9,187.2z"/>
		<path d="M818.4,200.7c-15.1-9.5-26.9-22.4-35.3-38.8c-8.4-16.4-12.6-34.7-12.6-54.8c0-20.1,4.2-38.4,12.6-54.8
			c8.4-16.4,20.1-29.3,35.2-38.7c15-9.4,32.2-14.1,51.6-14.1c19.3,0,36.5,4.7,51.6,14.1c15,9.4,26.8,22.3,35.2,38.7
			c8.4,16.4,12.6,34.7,12.6,54.8c0,20.3-4.2,38.6-12.5,55c-8.3,16.3-20,29.2-35,38.7c-15,9.5-32.2,14.2-51.6,14.2
			S833.6,210.2,818.4,200.7z M830.7,34.4c-11,7-19.5,16.8-25.5,29.3c-6,12.5-8.9,26.8-8.9,42.8c0,16.4,3.1,31,9.4,43.7
			c6.3,12.7,15,22.6,26.4,29.6c11.3,7,24.3,10.6,39,10.6s27.4-3.5,38.2-10.6c10.8-7,19.2-16.8,25.1-29.3c5.9-12.5,8.8-26.7,8.8-42.5
			c0-16.4-3.1-31-9.2-43.7c-6.2-12.7-14.8-22.6-25.9-29.7c-11.1-7.1-24-10.7-38.7-10.7S841.8,27.3,830.7,34.4z"/>
		<path d="M1177.3,178.4c-7.8,11.6-18.3,20.6-31.4,27c-13.1,6.3-27.7,9.5-44,9.5c-20.5,0-38.2-5-52.9-14.9
			c-14.8-10-25.9-23.2-33.4-39.9c-7.5-16.6-11.3-34.7-11.3-54.2c0-19.5,3.8-37.4,11.4-53.5c7.6-16.1,19-29,34-38.5
			c15-9.6,33.1-14.4,54.2-14.4c23.4,0,42.7,6,57.9,18c15.1,12,23.9,29.2,26.2,51.4h-26.7c-1.8-14.3-8-25.5-18.6-33.7
			c-10.7-8.2-24-12.3-40-12.3c-15.4,0-28.6,3.8-39.6,11.3c-10.9,7.5-19.2,17.6-24.8,30.2c-5.6,12.6-8.4,26.3-8.4,41.2
			c0,15.2,2.8,29.4,8.5,42.4c5.7,13,14.1,23.4,25.2,31.4c11.1,7.9,24.6,11.9,40.4,11.9c17,0,30.9-4.6,41.8-13.9
			c10.8-9.3,16.5-22.5,16.9-39.7h26.4C1189.1,153.2,1185.1,166.8,1177.3,178.4z"/>
		<path d="M1260,209.6h-25.2V4.5h25.2V209.6z"/>
		<path d="M1442.5,154.2h-94.7l-22,55.4h-26.4l83.5-205.2h25.2l83.2,205.2h-27L1442.5,154.2z M1433.8,131.4l-38.4-97l-38.4,97
			H1433.8z"/>
		<path d="M1658.5,209.6h-129V4.5h25.2v182.6h103.8V209.6z"/>
	</g>
	<g>
		<path d="M1866.9,369.4v14.8l-100.3,30.4l100.3,30.6v14.8L1743.8,493v-16.2l101-25l-101-30.3v-14.8l101.1-30.3l-101.1-25v-15.3
			L1866.9,369.4z"/>
		<path d="M1866.9,313.4h-123.1v-79.1h13.5v64h40.5V239h13.7v59.3h41.9v-67.4h13.5V313.4z"/>
		<path d="M1866.9,205.4h-123.1v-79.1h13.5v64h40.5V131h13.7v59.3h41.9v-67.4h13.5V205.4z"/>
		<path d="M1805.7,63.7l19.5,18.6h41.7v15.1h-123.1V82.3h62.4l-62.4-57.7V5.3l50.5,47.8l72.6-51.7v18.8L1805.7,63.7z"/>
	</g>
	<g id="Layer_2_2_">
		<path d="M231.6,0C242,0,252.5,0,263,0c1.3,0.2,2.5,0.5,3.8,0.7c11.5,1.7,23.1,2.6,34.4,5.2c57.6,13.3,105,43.1,141.3,89.9
			c31.1,40.1,48,85.7,51.2,136.3c1.5,23.8-0.3,47.5-6.1,70.7C473.4,360.1,443,407,395.7,442.4c-36.9,27.7-78.5,43.6-124.5,48.3
			c-27.3,2.8-54.3,1.3-80.9-5.3c-71.7-17.9-125.8-59-161.3-124C14.9,335.7,6.1,308,2.3,278.8c-0.8-6-1.5-12.1-2.3-18.1
			c0-9.9,0-19.9,0-29.8c0.2-1.1,0.5-2.3,0.7-3.4c1.7-11.6,2.4-23.4,5.1-34.8C22.3,122.8,61.4,69.2,123.5,32.9
			c28-16.3,58.2-26.5,90.3-30.7C219.7,1.5,225.6,0.7,231.6,0z M402.3,92.2c-2.8-2.7-5.6-5.4-8.7-8.5C393.7,87.3,398.9,92,402.3,92.2
			c0,0.4-0.1,1.1,0.1,1.3c3.9,3.6,7.8,7.1,11.9,10.8C412.9,96.1,408.7,92.8,402.3,92.2z M414,111c0.4,2.4,0.8,4.7,1.2,7.3
			c-1.7,0.2-3,0.3-4.5,0.5c4.4,5,7.2,6.7,10.4,6.4C418.8,120.4,416.4,115.7,414,111c-1.3-1.1-2.6-2.1-3.9-3.2
			c-6.3-5.5-12.7-11.1-19.2-16.8c-1.1,1.5-1.8,2.3-2.5,3.2c3,3.1,6.3,5.7,8.4,9.1C401.1,109.8,407.3,110.8,414,111z M75.2,186.2
			c1.4,2.2,2.9,4.5,4.3,6.7c0.2-3.3,0.5-6.7-3.9-7.1c-3.1-10.4-3.5-21-3.2-32.7c-3.4,3.9-6.3,7-8.9,10.3c-0.5,0.6-0.5,2.1-0.1,2.8
			C67.2,172.9,71.2,179.6,75.2,186.2z M347.3,78.1c-1.2,3.9-2.2,7.1-3.2,10.3c-0.8,2.8,1,6.8,3.7,7.2c9.7,1.7,19.5,2.2,29-0.9
			c8.3-2.7,13.4-10.1,11.5-17.1c-1.1-4.1-2.9-8.1-4.9-11.8c-4.3-7.9-11.3-13.6-18.3-18.6c-20.3-14.6-42.7-23.5-68.2-21.9
			c-4.7,0.3-9.6,2.3-13.9,4.5c-5.3,2.6-7.6,8.8-6.6,14.3c0.1,0.7,0.8,1.9,1,1.8c4.1-0.8,3.8,3.4,6.4,4.9c-1.7,1-2.9,1.7-4.3,2.5
			c2.3,0.9,4.4,1.7,6.5,2.5c-0.1,0.4-0.1,0.7-0.2,1.1c-1,0.3-2,0.7-2.9,1c0.5,0.8,0.9,1.6,1.3,2.3c1.4-1.2,2.4-2.2,3.5-3.1
			c2.5,2.7,1.5,4.7-0.7,6.7c3.4,3.1,6.7,6.1,10,9c1.4,1.2,2.9,2.2,4.4,3.3c0.5-6,2.3-7.8,7.6-5.6c1.3,0.6,3.3-0.2,5-0.6
			c1.1-0.3,2.1-1.5,3.1-1.5c4.1,0.1,8.3,0.1,10,4.1c1.7-1.1,3.1-2.8,4.1-2.6c3.4,0.5,7.6,0.1,8.7,5.1c-0.9,0.2-1.9,0.3-2.8,0.4
			c0,0.4-0.1,0.8-0.1,1.2C340.2,77.1,343.5,77.6,347.3,78.1z M221.6,307.5c-7.3,15.8-14.6,31.7-22.3,48.3
			c18.4,7,36.3,13.8,54.5,20.8c6.9-17,13.5-33.2,20-49.2C256.3,320.7,239.2,314.2,221.6,307.5z M199.2,224.3
			c-9.5,16-19.1,32.4-29.2,49.5c16.5,8.9,32.6,17.5,49,26.4c8.3-18,16.3-35.3,24.1-52.3C228.3,240,214,232.3,199.2,224.3z
			 M223.9,302.6c17.5,6.6,34.5,13.1,52,19.7c6.4-18.9,12.5-36.7,18.5-54.3c-15.7-6-30.9-11.9-46.4-17.8
			C240.2,267.3,232.3,284.4,223.9,302.6z M279.3,328.8c-6.7,16.4-13.4,32.4-20.3,49.4c17.9,4.1,35.8,8.2,54.1,12.4
			c4.6-12.4,8.8-23.8,12.9-35.3c1-2.7,3.1-5.6,0.3-8.6c-0.3-0.4,0.1-1.8,0.6-2.5c2.1-3,0.7-4.1-2.3-4.7c-6.5-1.3-13-2.5-19.5-4.1
			C296.7,333.4,288.1,331.1,279.3,328.8z M281.4,323.5c3.1,0.9,6.1,1.8,9.1,2.5c11.9,2.8,23.8,5.6,35.7,8.2c1.5,0.3,4.4,0,4.8-0.9
			c2.6-5.9,6.4-11.5,4.9-18.5c-0.2-0.9-0.1-2,0.2-2.9c1.6-4.2,3.7-8.2,4.9-12.5c1.7-6.4,2.7-12.9,3.9-19.1
			c-15.5-3.7-30.3-7.2-45.2-10.7C293.6,287.4,287.6,305.2,281.4,323.5z M122.8,239.5c14.5,10.7,28.5,20.9,42.6,31.3
			c10.2-17.2,19.8-33.4,29.3-49.4c-12.6-9.3-24.9-18.3-37.7-27.7C145.8,208.6,134.6,223.6,122.8,239.5z M234.2,171.4
			c-10.6,15.9-21.2,31.8-32.1,48.3c14.7,7.9,28.8,15.5,43.2,23.3c8.3-18,16.2-35.2,24.2-52.4C257.8,184.1,246.4,178,234.2,171.4z
			 M312,207.2c-12.7-4.9-25-9.6-37.4-14.4c-8,17.3-15.9,34.5-24.2,52.5c15.3,5.9,30.2,11.6,45.7,17.5
			C301.5,243.7,306.8,225.4,312,207.2z M301.4,264.4c14.9,3.5,29.5,6.9,45,10.5c2.5-19.9,4.9-38.9,7.3-57.7
			c-12.7-2.9-24.6-5.7-36.5-8.5C311.9,227.2,306.8,245.3,301.4,264.4z M310.3,395.9c-17.1-4.2-33.6-8-49.9-12.3
			c-2.9-0.8-4-0.3-5.3,2.3c-5.6,11.5-11.5,22.8-17.2,34.2c-0.5,1-0.9,2-1.8,3.8c17.1,3.7,33.6,7.3,50.1,10.7c1,0.2,2.9-0.9,3.6-2
			c4.4-7,8.6-14,12.6-21.1C305.3,406.4,307.8,401,310.3,395.9z M194.5,353.1c7.5-16.3,14.8-32.2,22.1-47.9
			c-16.5-8.9-32.7-17.7-49-26.5c-2.7,5.1-5.2,10.3-8.2,15.2c-2.2,3.6-2.7,6.8-0.3,10.4c0.6,0.8,0.6,2.3,0.5,3.3
			c-0.4,3,0.7,4.8,3.6,6c2.7,1.1,5.8,2.3,7.8,4.4c6.2,6.7,11.4,14,11.1,23.8c-1.5,0.8-3,1.5-5.1,2.6
			C183,347.4,188.5,350.1,194.5,353.1z M160.4,189.6c12.8,9.4,25,18.2,37.1,27.1c11.1-16.7,21.6-32.5,32.1-48.4
			c-5.9-4.7-6-4.7-10.5-3.7c-0.4-4.8-5.4-9-10.9-9.2c-2.4-0.1-5.3,3.1-5.5,6.2c-9.1-5.2-11.9-5.6-17-0.3
			C177.2,170.2,169.2,179.7,160.4,189.6z M101.9,183.1c0.9,0.7,1.4,1.1,1.9,1.4c4.6,3.1,4.6,5.6-0.3,7.8c-2.9,1.3-3.9,4.8-7.7,5.4
			c-2,0.3-3.5,3.7-5.7,6.2c1.6,1.4,3.7,2.6,5,4.4c2,2.8,3,6.5,5.3,9c5.9,6.4,12.3,12.3,18.8,18.6c3.9-5.6,7.4-10.7,11.1-16
			c-2-0.7-3.6-1.3-6-2.3c2-0.7,3.1-1.1,3.9-1.4c-1.7-9.5-6.1-17.4-14.5-23.5c1.6-0.2,3.1-0.8,4-0.3c3.4,2,7.3,3.2,8.9,7.5
			c2,5.2,4.4,10.3,6.8,15.7c6.8-8.8,13.4-17.3,19.9-25.8c-3.9-3.6-7.5-6.9-10.8-9.9c-2.8,4.1-5.4,8-8.3,11.7
			c-0.5,0.7-2.2,0.4-3.3,0.6c-0.2-1.1-0.8-2.5-0.4-3.4c2-4.8,4.3-9.5,6.6-14.5c-4.2-4.5-8.8-9.4-13.6-14.6
			C116.1,167.7,109.1,175.3,101.9,183.1z M363.2,400.1c-15.5-1.3-30.2-2.6-44.9-3.6c-1.1-0.1-2.8,1.4-3.5,2.6
			c-5.4,9.8-10.7,19.7-16,29.5c-1.3,2.3-2.8,4.5-4.4,7.2c1.6,0.3,2.6,0.6,3.6,0.7c8.8,0.7,17.7,1.4,26.5,2
			c14.7,1.1,14.9,1.2,22.8-11.3C352.9,418.4,357.9,409.3,363.2,400.1z M52.3,247.7c9.4-15.7,18.3-30.4,27-45
			C72.3,192,65.2,181,58,170.1c0,0-0.4,0.3-0.6,0.6c-9.7,12.4-17.8,25.7-24.6,39.9c-0.6,1.3-0.4,3.7,0.4,5
			C39.4,226.2,45.8,236.7,52.3,247.7z M324.9,149.2c-8.9-3.4-17.2-6.6-25.7-9.8c-7.4,16-14.8,32-22.4,48.5c12.3,4.7,24,9.2,36.5,14
			C317.3,183.7,321.1,166.4,324.9,149.2z M353.6,210.9c0.1-1.2,0.4-2.4,0.4-3.5c0.3-15.3,0.5-30.5,1-45.8c0.1-4.3-0.9-6.1-5.5-6.7
			c-6.5-0.8-12.9-2.8-19.3-4.2c-3.9,17.6-7.7,34.9-11.6,52.8c11.2,2.6,22.2,5.1,33.2,7.6C352.3,211.1,352.8,211,353.6,210.9z
			 M214.8,456.5c14.8,3.2,29.4,6.4,44,9.5c0.7,0.1,1.6-0.1,2.1-0.5c9-7.2,16.5-15.7,23.2-24.7c-16.4-4.1-32.5-8.1-48.6-12
			c-1-0.2-2.7,0.7-3.3,1.6C226.4,438.7,221,447.1,214.8,456.5z M237.6,167c11.6,6.3,22.8,12.4,34.3,18.6
			c7.7-16.7,15.1-32.7,22.4-48.6c-8.2-4.4-15.9-8.6-24.2-13.1c-1.8,5.5-10.6,7.7-6.2,16c-2.4,0-4.3,0-6.1,0c1.1,0.9,2.5,0.4,3.2,0.9
			c1.4,0.9,3.5,2.5,3.4,3.6c-0.2,2.2-1.6,4.4-2.9,6.3c-0.3,0.4-2.5-0.1-3.6-0.6c-2-0.9-7.6,0-9.2,2C245,156.9,241.5,161.7,237.6,167
			z M70.8,334.1c0.8-1.7,1.3-2.3,1.3-2.9c0.1-3.4,0.2-6.9,0.1-10.3c-0.1-5.1-0.1-10.2-0.7-15.3c-0.4-3.2-2.2-6.2-2.5-9.4
			c-0.2-2.3,1.1-4.8,1.7-7.2c3.1,0.9,4-0.7,3.8-3.4c-0.1-2.2,0.8-5.2-0.3-6.4c-6.3-7.1-13-13.9-19.8-20.9
			c-6.3,13.5-11,27.3-14.1,41.7c-0.2,0.8,0.4,2,1,2.7C51,313,60.6,323.2,70.8,334.1z M93.7,274.5c0-2-0.7-4.3,0.1-5.3
			c3.5-4.1,4-9.1,5.1-14c0.6-2.8-1.6-6-4.1-5.3c-1.2,0.3-2,1.9-3.4,3.3c-0.5-1.2-0.8-2.2-1.2-3.2c-0.7-1.8-1.5-3.5-2.1-5.3
			s-1.2-3.6-1.8-5.5c-0.8-2.4,1.4-5.6-2.3-7.1c-0.3-0.1-0.3-1.5-0.1-2.1c2.6-7.1,3.9-14.1-1.5-21.3c-0.2,0.4-0.5,0.9-0.7,1.4
			c-7.8,13.2-15.7,26.5-23.3,39.8c-0.6,1-0.2,3.4,0.6,4.3c6.2,6.9,12.6,13.7,18.9,20.4c0.6,0.6,1.5,1.3,2.2,1.3
			c4.5-0.3,8.9-0.7,13.4-1.1C93.7,274.7,93.9,274.4,93.7,274.5z M161.9,436.8c15.5,5.7,30.5,11.2,45.4,16.7c0.7,0.3,2.2-0.2,2.7-0.8
			c6.1-8.5,12.1-17.1,18.3-25.9c-11.3-4-21.6-7.7-30.5-10.9c-5.4,3.4-9.9,6-14.2,8.9c-5.6,3.8-10.2-1-15.5-1.6
			C166.2,427.5,164.3,431.7,161.9,436.8z M34.5,295.5c5.2-13.9,10-26.8,14.9-39.6c0.8-2,0.7-3.3-0.6-5.3
			c-6.2-9.2-12.1-18.5-18.1-27.8c-0.6-1-1.2-1.9-1.8-2.9c-0.5,0-0.9-0.1-1.4-0.1c-3.2,11.9-6.5,23.7-9.4,35.7
			c-0.8,3.3-2,7.5-0.7,10.1C22.6,275.7,28.7,285.4,34.5,295.5z M231,421.9c7-13.7,13.7-27,20.6-40.6c-1.2-0.5-2-0.9-2.9-1.2
			c-11-4-22-7.8-33-12c-5.6-2.1-11-4.7-16.5-7c-0.7-0.3-1.6-0.1-2.3-0.1c0.1,0.8,0,1.8,0.5,2.3c1.8,1.8,3.6,3.6,5.7,5.1
			c5.8,4.2,12.7,7,16,14.1c0.7,1.5,2.2,3,3.7,3.8c5.6,3,6.2,4.8,2.8,10.3c-2.5,4-5.9,5.5-10.4,6.5c-5.5,1.2-10.6,4-15.9,6.1
			c0.1,0.5,0.2,1,0.3,1.6C209.7,414.4,220,418,231,421.9z M360.5,157.2c-0.1,1.1-0.2,2.2-0.2,3.2c-0.3,14.2-0.4,28.5-0.8,42.7
			c-0.2,8.9-0.3,9.1,8.3,10.1c7.8,0.9,15.8,1,24.5,1.6c-0.9-3-1-5.4-2.2-7s-4.9-2-5.2-3.5c-0.9-4.2,3.2-1.7,4.8-2.8
			c0.1-0.1,0.2-0.2,0.5-0.5c-0.3-2.1-0.6-4.4-0.9-6.4c-2.2,0.4-4.1,0.7-6.3,1.1c1.8-5.9,1.8-5.9-1.9-7.6c3.1-2.2,4.5-4.5,2.9-8.6
			c-1-2.5-1.3-4.5-4.4-4.6c-0.4,0-1.1-0.8-1.2-1.3c-0.5-2.7-1.1-5.4-1.1-8.1c0-1.3,1.5-2.6,2.1-3.5c1.5,1.5,2.2,2.3,3,3.2
			c0.3-0.2,0.6-0.5,1-0.7c-0.5-1.9-1-3.9-1.4-5.6C374.7,158.2,367.7,157.7,360.5,157.2z M367.1,277.2c0.8-1.8,1.3-3.3,2.1-4.6
			c1.2-2,2.2-4.5,4-5.5c3-1.7,5.3-3.6,6.5-6.8c1.1-2.8,2.4-4.1,5.9-2.2c1.9,1.1,5.2,0.8,7.4-0.1c1-0.4,0.9-3.7,1.4-6.1
			c-4.2,0.8-7.6,1.5-11.9,2.3c-1.7-2-3.6-6.2-8.2-4.5c-0.8-3.4-1.9-6.3-1.9-9.1c0-3.1,1.2-6.1,1.9-9.1c0.2-0.8,0.1-1.6,0.1-2.3
			c-0.6-6.1,1.4-7.8,7.4-6.5c3.1,0.6,6.2,0.8,9.3,1.2c0.3,0,0.7-0.2,1.1-0.3c0-1.2,0-2.2,0-3c-11.3-0.8-22.3-1.6-33.2-2.4
			c-2.4,19-4.8,38.1-7.2,57.3C357,275.9,361.9,276.5,367.1,277.2z M347.1,437.6c0.5,0.2,0.7,0.4,0.9,0.4c11.1-1.6,22.1-3.2,33.2-5
			c1.1-0.2,2.3-1.2,3.1-2.2c4.3-5.3,8.3-10.8,11.7-16.9c3.7-6.6,0-11.6-0.3-16.9c-8.2,0.6-15.8,1.3-23.5,1.8
			c-2.1,0.1-3.2,0.8-4.1,2.7c-4.4,8.3-8.8,16.6-13.5,24.7C352.3,430.1,349.6,433.8,347.1,437.6z M268.5,467.2
			c0.2,0.1,0.9,0.5,1.6,0.5c7.8,0.6,15.6,0.8,23.4,1.8c10.3,1.3,18.8-1.4,25.8-9.2c4.8-5.3,10.1-10.2,15.3-15.3
			c-14.5-1.3-28.1-2.5-41.7-3.6c-1.1-0.1-2.6,0.5-3.3,1.3C282.5,450.8,275.5,459,268.5,467.2z M64,374.3c2-11.8,3.8-22.5,5.4-33.3
			c0.1-1-0.7-2.4-1.5-3.2c-4.3-4.2-8.8-8.1-13.1-12.4c-5.4-5.4-10.6-11-15.9-16.6c-0.4,0-0.9,0.1-1.3,0.1c-0.3,11.5-0.6,23-0.8,34.5
			c0,1,0.4,2.1,1,2.8C46.6,355.7,55.2,364.9,64,374.3z M90.9,95.2c-12.5,9.2-23.6,19.2-33.9,30c-3,3.1-5,6-3.7,10.6
			c2.2,7.5,3.9,15.1,5.3,20.6c7.3-6.4,14.7-12.8,21.9-19.4c1.7-1.5,2.6-4,3.7-6.1s1.8-4.3,2.9-6.3c2.2-4,4.8-7.9,6.9-11.9
			c0.6-1.1,0.1-2.8,0.1-4.5c-3.1,4.1-6.2,7.6-8.7,11.5c-2.4,3.6-4.2,7.6-6.2,11.4c-0.6-0.3-1.2-0.7-1.8-1c2.2-4.2,4.4-8.5,6.8-12.7
			c1.3-2.2,3.3-4,4.4-6.4c0.9-1.9,0.5-4.4,3.7-4.4c0.3,0,0.9-1.3,0.8-1.8C92.4,101.6,91.7,98.6,90.9,95.2z M28.8,205.8
			c0.5-0.7,0.7-1,0.9-1.4c7.2-13.8,15.2-27.1,25-39.1c0.6-0.7,0.9-2,0.7-2.8c-2.7-8.5-5.4-16.9-8.2-25.4
			c-9.4,11.8-17.8,24.5-24.7,38.1c-0.4,0.9-0.5,2-0.4,3C22.9,187.5,25.1,196.5,28.8,205.8z M318.6,391.2c12.4,0.9,24.4,1.9,36.3,2.6
			c10.7,0.7,10.7,0.6,14.7-9.5c0.5-1.3,1-2.7,1.9-5.2c-6.2,0.3-11.8,0.2-17.4,1c-4.1,0.6-9.1-0.8-11.5-4.3c-1.9-2.8-4.2-5.2-6.3-7.9
			c-0.8-1.1-1.6-2.3-2-3.5c-0.8-2.6-1.3-5.2-1.9-7.9c-0.3,0.1-0.6,0.2-1,0.2C327.4,368.1,323.2,379.2,318.6,391.2z M205.2,459.2
			c-15.6-6-30.5-11.8-45.6-17.6c-2.6,5.6-5.1,11.2-8,17.5c12.2,4.5,23.9,8.8,35.6,12.9c1.1,0.4,2.9,0,3.8-0.7
			C195.8,467.4,200.4,463.4,205.2,459.2z M432.4,264.2c-1.6-11.9-3.1-23.3-4.8-34.7c-0.1-0.9-1.1-1.7-1.8-2.5
			c-1.7-1.9-3.7-3.6-5-5.7c-2.6-4.1-4-4.4-6.7-0.5c-1.5,2.2-3,3.3-5.8,2.9c-0.9-0.1-2,0.4-3.4,0.7c1,4.3-0.6,7.3-4.2,9.5
			c-1,0.6-1.7,2.4-1.7,3.7c0,5.2,0.4,10.4,0.6,15.7c8.5-2.1,16.8-4.5,25.4-5.5c0,2.2-0.5,3.7,0.1,4.6c1.5,2.3,0.8,4.1-0.2,6.2
			c-1.4,2.9-0.4,4.5,2.8,5.1C428.9,263.9,430.1,264,432.4,264.2z M451,242.3c-0.4,0.1-0.8,0.3-1.2,0.4c-3.1-5.1-7.4-9.9-9-15.4
			c-1.6-5.6-6-7-9.7-10.4c0,6.7,2.4,11.2,8.1,13.7c-0.9,0-1.8,0-2.7,0c0.9,3.8,0.9,3.8-1.4,10.3c-0.1,0.3,0,0.8,0.1,1.2
			c0.8,7.5,1.7,15,2.2,22.6c0.2,3.7,2.2,5.2,5.3,5.1c3.1-0.1,4.1-2,4-5.3c-0.2-5.4,2.8-7.2,8.1-5.9c2.3,0.6,4.8,0.4,7.8,0.7
			c-0.9-5.8-1.6-10.9-2.4-16c-0.4-2.3-0.3-5.4-1.7-6.6c-3.7-3.2-4.3-7.4-4.8-11.5c-0.3-3.3-1.6-3-3.8-2.6c-0.2,3.4-0.5,6.4-0.7,9.6
			c0.5,0.6,1.3,1.6,2.1,2.6c-0.7,0.4-1.3,0.9-1.4,0.9C450.4,237.9,450.7,240.1,451,242.3z M147,42.9c-8.2,3.2-16,6-23.6,9.4
			c-7.2,3.3-14.1,7.2-21.1,10.9c-1,0.5-2.1,1.4-2.4,2.4c-1.6,6.1-3,12.4-4.5,18.5c0.4,0.1,0.8,0.3,1.2,0.4c0.5-0.3,1-0.7,1.6-1
			c15.2-8.1,28.6-19.5,45.2-25c0.8-0.2,1.6-1.3,1.8-2.1C145.9,52.2,146.3,48,147,42.9z M162.8,275.8c-14.5-10.7-28.5-21-42.6-31.4
			c-2.1,3.4-4.3,6.9-7.1,11.4c5.5,0.6,10.1,1.1,14.9,1.6c-1.5,1.3-3.1,2.3-4.2,3.6c-0.9,1.1-1.2,2.7-1.8,4.1c1.9,0,3.8,0.2,5.7,0
			c0.3,0,0.6-1,1.3-2.2c1,2.1,1.5,3.3,2.1,4.4c1,1.8,1.8,3.8,3.2,5.2c6.7,6.1,13.7,12,20.5,17.9
			C157.3,285.9,160.1,280.8,162.8,275.8z M354.3,102.4c2.2,16.2,4.5,32.5,6.8,49.2c6,0.4,12.4,0.8,19.1,1.3c-0.2-1.4-0.2-2-0.4-2.6
			c-5.1-13.9-10.1-27.8-15.4-41.6C361.7,101.9,360.8,101.7,354.3,102.4z M198.3,475.6c5.6,1.3,12.9,3.2,20.2,4.8
			c3.9,0.9,8.2,2.8,11.8,1.9c8.3-1.9,15.8-6.2,22.8-11.1c-13.7-3.5-27.1-6.9-40.5-10.3c-0.8-0.2-2.2,0.1-2.7,0.7
			C205.9,466.4,202,471.2,198.3,475.6z M119.9,155.6c-1.8-2.5-3.4-5.2-5.4-7.5c-2.8-3.2-6.7-2.9-9.7,0.3c-1.5,1.6-3.2,2.9-4.9,4.3
			c-2.3,2-5.2,3.7-6.9,6.2c-2.9,4.1-5.1,8.6-7.5,13c-2.2,3.9-0.5,9.7,3.3,12c1.2,0.7,2,2,2.9,3.1c4.4-5.1,9-10.5,13.7-15.7
			C110.1,166,115,160.9,119.9,155.6z M110.7,429.2c0.9,3.4,0.7,7.5,2.5,8.6c10.8,6.6,22.1,12.6,33.5,18.9c2.9-6.4,5.5-12,8.1-17.7
			c-5.8-2.9-11.2-5.7-16.7-8.3c-1.1-0.5-2.5-0.4-3.8-0.3c-5.3,0.3-10.4,0.6-14.2-4.3c-0.8-1.1-2.1-1.9-4.1-3.5
			c1.4,3.5,2.4,5.9,3.9,9.5C116.6,431,114.3,430.3,110.7,429.2z M52.9,120.8c0.5-0.1,0.8,0,0.9-0.2c11.8-10.3,23.5-20.6,35.2-31
			c0.7-0.6,1.3-1.6,1.4-2.5c0.6-5.8,1.1-11.6,1.7-18.2c-7.5,5.9-14.7,11.4-21.7,17.2c-4.2,3.5-8.6,7.1-11.5,11.6
			C54.8,104.6,53.5,112.7,52.9,120.8z M12.2,253.9c0.3-0.7,0.5-1.1,0.6-1.5C16.9,239.7,21,227,25,214.3c0.4-1.2,0-2.8-0.4-4
			c-1.7-5.4-3.6-10.8-5.4-16.3c-0.7-2.2-1.1-4.5-1.8-7.4C5.4,213.2,3.2,228.2,12.2,253.9z M15.4,275.8c-1.1,11-0.5,22,1.1,32.8
			c1.6,10.7,7.8,19.3,13.7,27.8c1.2-10.9,2.4-21.4,3.4-32c0.1-1.1-0.1-2.4-0.7-3.2C27.3,292.8,21.4,284.5,15.4,275.8z M337.6,107.3
			c0,2.3,0,3.9,0,5.5c2.2,0.4,4.1,0.8,6.1,1.2c-2.3,2.1-4.7,3.3-7.1,4.6c-0.8,0.5-2,1.2-2.1,1.9c-1.2,8.1-2.3,16.2-3.4,24.6
			c7.9,1.8,15.4,3.6,23.4,5.4c-0.3-4.6-0.6-8.4-0.9-12.7c-8.9,3.9-8.4-4.8-13.3-8.5c2.3-0.8,4.8-1.8,4.9-1.6
			c1.7,3.6,4.6,1.9,7.8,1.9c-1.8-9.6-3.5-19-5.2-27.7c-2.4,1.1-4.2,1.8-6,2.6c1.2,2.5,2.5,5.2,3.8,7.8c-0.4,0.3-0.8,0.5-1.2,0.8
			C342.4,111.3,340.3,109.6,337.6,107.3z M319,468.1c0.1,0.3,0.2,0.6,0.4,0.9c10.1-2.1,20.9-1.1,29.9-7.6
			c8.4-6.1,17.6-11.4,23.5-20.5c-7.5,0.9-14.7,2.3-22,2.5c-5.7,0.1-9.8,1.6-13.7,6.2C331.7,456.2,325.1,462,319,468.1z M368.1,102.8
			c0.4,1,0.9,2.1,1.4,3.3c5.1,13.8,10.3,27.5,15.2,41.3c1.9,5.4,1.7,5.5,7.1,4.4c0.8-5.1,1.7-10.1,2.3-15.1c0.2-1.9,0.1-4.2-0.8-5.8
			c-4.9-8.3-10.2-16.4-15.2-24.6C375.7,102.8,373.4,99.7,368.1,102.8z M308.1,86.9c-0.4-0.2-0.7-0.5-1.1-0.7
			c-12.5,9.5-22.7,21.3-33.2,33.6c7.5,4,14.5,7.7,21.2,11.3c-0.3-3.7-0.2-7.1-0.9-10.2c-1.1-5.1,0.8-9.5,3.1-13.6
			c1-1.8,3.9-2.4,5.8-3.7c1.2-0.8,2.8-1.6,3.4-2.8c1.4-2.7,0.4-4.9-2.3-6.2C305.6,91.9,306.9,89.4,308.1,86.9z M105.6,257.2
			c3.6-5.7,7.1-11.3,10.5-16.8c-6.3-5.9-12.3-11.5-18.5-17.4c-2,2.8-4,5.4-5.9,8.2c-3.4,5-0.9,13.6,4.7,15.6
			c2.2,0.8,3.4,1.7,3.7,4.2C100.5,254,101.9,256.5,105.6,257.2z M78.8,385.8c0.8-1.6,1.7-3.2,2.4-4.8c1.7-4.4,3.9-8.8,4.9-13.4
			c2-9.6-2.6-18.5-12.2-23.6c-1.1,8.8-1.9,17.3-3.3,25.8c-1.2,7.4,1.5,12.5,8,15.9C78.7,385.7,78.8,385.8,78.8,385.8z M269.5,73
			c-0.1,1-0.1,1.5-0.1,2c-0.2,3.2-1.9,5-5.1,5.5c-2.8,0.4-5.9,2.7-7.6-2.2c-0.9-2.8-5.5-3-8-0.9c-0.8,0.6-1.6,1.5-2.5,1.8
			c-4.9,1.5-9.8,2.8-14.8,4.2c-0.1,0.5-0.2,1.1-0.3,1.6c4.7,4.2,9.5,8.4,14.4,12.8c9.6-6.4,19.6-13.1,29.6-19.8
			C273.4,76.5,271.7,74.9,269.5,73z M388.1,158c1.5,13,6.8,24.7,7.3,37.3c1.1-1.4,2.2-2.8,3.3-4.3c2.6-3.3,3.1-7.5,6-10.9
			c2.2-2.7,1.9-7.8-1-11.3c-1.8-2.2-1-3.9,1.1-5.6c0.9,2.2,2.4,4.2,2.4,6.1c0,5.2,0.1,5.6,5.4,4.2c-1-1.2-2.2-2.2-2.7-3.4
			c-1.9-4.2-3.6-8.5-5.4-12.7c-0.3-0.6-1.1-1.2-1.7-1.2c-0.5,0-1.3,0.8-1.5,1.4c-0.6,1.5-0.9,3.1-1.5,5.2c-1.4-0.9-3-1.3-3.4-2.2
			C394.5,156.6,391.3,157.8,388.1,158z M371.8,393.9c9.4-1.2,18.1-2.2,26.7-3.5c1.1-0.2,2.4-1.2,2.9-2.2c1.5-2.8,2.7-5.8,3.8-8.4
			c-3.7-4.5-6.7,1.1-9.9-0.1c-3.1-6.9-3.1-7.1-10.8-5.2c-2.4,0.6-5.4,1.9-6.5,3.9C375.6,382.9,374.1,387.9,371.8,393.9z M39.5,357.4
			c2.4,19.7,13.9,33.7,28.7,46.2c-1-7.3-2-14.2-3-21c-0.1-0.8-0.9-1.6-1.5-2.2C55.6,372.8,47.6,365.2,39.5,357.4z M297.2,475.4
			c-8.2-0.7-16.3-0.9-24.3-2.1c-7.6-1.2-14.1-0.7-20.1,4.7c-2.8,2.5-6.5,3.9-10.4,6C269.6,487,284.7,484.5,297.2,475.4z M158.9,33.8
			c0.9-0.2,1.7-0.3,2.6-0.5c14-2.2,27.9-5,42-6.3c5.9-0.5,8.8-2.7,11.2-7.7c-1-0.1-1.8-0.2-2.5-0.2c-12.5,0.9-24.9,1.9-37.4,2.7
			C166.9,22.2,162.9,27.7,158.9,33.8z M220,102.8c-2.7,4.1-5.2,7.6-7.2,11.3c-0.5,1,0.2,3.9,0.8,4.1c1.8,0.4,3.7,0.2,4.9-2.2
			c1.2-2.5,2-6.6,6.3-5.6c4.7,1.1,7.9-0.9,11-4c2.9-2.8,3.2-5.9,0.5-8.7c-2.7-2.8-5.3-5.8-8.1-8.5c-1-0.9-3.2-2-4-1.5
			c-2.4,1.4-6.1,0.9-6.4,5.6C217.5,97.4,218,100.8,220,102.8z M162.7,52.2c0.3,0.3,0.5,0.6,0.8,0.9c3.3-2.4,7.1-4.3,9.7-7.3
			c2.3-2.6,4.6-4.4,7.8-5.4c2.9-0.9,5.7-1.8,8.5-2.8c2.8-1.1,5.6-2.3,8.4-3.5c-0.1-0.4-0.3-0.8-0.4-1.2c-0.6,0-1.3-0.1-1.9,0
			c-13.3,2.5-26.5,5.1-39.8,7.6c-0.7,0.1-1.7,0.5-1.9,1c-1.3,4.6-2.5,9.2-3.7,13.8c0.5,0.3,1,0.6,1.6,1c3.7-2.2,7.4-4.5,11.3-6.9
			C162.9,50.6,162.8,51.4,162.7,52.2z M22.1,162.1c8.3-11.2,16.1-21.7,23.7-32.2c0.7-1,1.1-2.3,1.3-3.5c0.6-6,1.1-12,1.7-18.3
			C38,125.1,26.9,141.7,22.1,162.1z M107.3,53.1c0.8,0.1,1.1,0.3,1.3,0.2c13.4-5.4,26.7-10.9,40-16.4c0.7-0.3,1.5-0.6,1.9-1.2
			c2.1-3.1,4-6.4,6.6-10.4C138.5,32.1,120,36.9,107.3,53.1z M306,136.2c6.4,2.3,12.8,4.7,19.6,7.2c1.1-7.8,2-14.9,3.1-22.7
			c-7.5,3-14.2,5.8-20.5,8.3C307.5,131.5,306.9,133.6,306,136.2z M279.2,105.1c-1-3.5-1.7-6.1-2.5-8.7c-0.5,0-1,0-1.5,0.1
			c-0.4,2.5-0.9,4.9-1.3,7.4c-0.4,1.4-1.5,2.7-2.7,3.9c-2.3,2.3-4.8,2-6-1c-1.2-3.1-2.1-6.3-3.2-9.4c-0.3-0.9-0.8-1.8-1.4-2.9
			c-1.8,1.3-3.2,2.3-3.7,2.6c-0.6,4.7-1.1,9.1,1.9,12s6.8,5,10.4,7.6C273,112.4,276.4,108.4,279.2,105.1z M169,171.6
			c-4.6-0.6-8.7-0.6-12.5-1.6c-5.1-1.4-8.2,1.5-12.2,4.2c4.4,4.1,8.3,7.8,12.4,11.7C160.9,180.9,164.8,176.4,169,171.6z M235,141.7
			c-4.4,0.3-7.5,0.5-10.7,0.7c2.8,1.4,5.7,2,8.6,2.8c0.8,0.2,1.4,1.5,2,2.3c-1,0.5-1.9,1.1-3,1.4c-0.6,0.1-1.4-0.3-1.3-0.3
			c-0.5,1.6-0.7,2.9-1.2,4.1c-1,2.2-2.1,4.2,0,6.4c1.4,1.3,2.6,2.8,4,4.4c3.8-5.3,7.4-10.2,11.4-15.8
			C240.9,145.3,237.3,143.2,235,141.7z M285.4,79.5c3.9,6.9-1.3,13.1-1.9,19.6c0.3,0.1,0.7,0.1,1,0.2c5.7-5.4,11.3-10.8,17.2-16.3
			c-1.9-1.3-3.6-2.5-5.3-3.7C291.4,75.6,291.4,75.6,285.4,79.5z M419.4,150.5c-1.3,0.6-2.9,0.9-3.6,1.8c-1.3,1.9-3.4,4.5-3,6.3
			c1.3,5.1,3.7,9.9,5.7,15.1c1.4-2.5,5.9-0.6,5.5-4.5c-0.3-2.6-1.2-5.1-1.9-7.7c-0.2-0.9-0.6-1.7-0.9-2.6c-0.1-0.3,0.1-0.7,0.1-1.2
			c1.1,0.2,2,0.4,3.3,0.6C422.9,155.6,421.2,153.1,419.4,150.5z M276.7,59.2c-1.9-2.9-4.4-3.7-7.6-3.4c-6.2,0.5-12.1,3.4-18.5,2.5
			c-0.3-0.1-0.8,0.5-0.5,0.3c1.2,2.8,2.2,5.3,3.4,8.1c2.7,0,7,2,8.2-3.6C266.7,61.9,272.3,63.2,276.7,59.2z M463.5,194.4
			c-2.5,2.2-4.6,4-6.5,5.9c-0.6,0.6-1.2,1.8-1.1,2.5c0.9,3.7,2.2,7.2,3.3,10.9c1.2-2.7,2.3-4.9,3.3-7.2c0.2,0.4,0.5,0.7,0.7,1.1
			c1.5-0.3,3.7-0.2,4.3-1.1C471.7,200.6,470.1,196.5,463.5,194.4z M479.6,296.6c0.6,0.1,1.2,0.1,1.8,0.2c0.4-2.7,1.3-5.4,1.2-8
			c-0.4-5.4-0.8-10.9-2.4-16c-1.2-3.7-4.3-6.8-6.6-10.2c-0.4,0.2-0.9,0.5-1.3,0.7c1.1,4,2.1,8,3.2,11.9c0.6,2.2,1.4,4.4,2.1,6.6
			c0.7,2.3,1.6,4.5,1.9,6.8C479.8,291.3,479.6,294,479.6,296.6z M392.6,118.5c0.8-1.8,1.9-3.4,2.3-5.1c0.3-1.4,0.3-3.3-0.5-4.3
			c-2.2-3-5.1-5.6-7.4-8.5c-2.2-2.7-4.3-3.5-6.7-0.6C384.4,106.2,388.5,112.4,392.6,118.5z M470.9,230.1c-2.3,3-6.6,3.1-6,7.3
			c0.7,5.1,1.8,10.1,2.7,15.3c3.3-0.9,4.6-2.7,4.3-6c-0.3-3.9,0-7.8-0.1-11.7C471.7,233.6,471.3,232.3,470.9,230.1z M219.9,9.4
			c-11.5,0.6-23.2,0.2-34.1,4.7c11.8,0,23.7,0,35.9,0C220.9,12.1,220.4,10.9,219.9,9.4z M162.3,422.5c-2,0-3.1,0-4.3,0
			c-3.5-0.2-7.1-0.7-7.9,4.4c-0.1,0.9-1.7,1.5-2.8,2.3c3.3,1.6,6.5,3.1,9.9,4.7C158.9,430.1,160.5,426.6,162.3,422.5z M348,294
			c5.1-3.7,10.4-7.5,16.1-11.6c-4.7-0.5-9.1-1-13.7-1.5C349.5,285.8,348.7,290.3,348,294z M8.5,286c0.3,0,0.6,0,1,0
			c-0.8-10.8,4.2-22.2-4.3-32.5C6.3,264.6,7.4,275.3,8.5,286z M406.5,126.6c-0.6,0.3-1.1,0.6-1.7,0.9c0.5,1.5,1,2.9,1.5,4.4
			c0.4,1.5,1.4,3.1,1,4.4c-1.4,4.7,1.3,8.1,3,12.2c1.4-0.7,2.6-1.2,2.9-1.4c-1.3-5.6-2.2-10.6-3.6-15.6
			C409.1,129.7,407.6,128.2,406.5,126.6z M144.4,462.4c0-0.4-0.1-0.7-0.1-1.1c-9.8-5.1-19.6-10.2-30.1-15.7c0.8,1.3,0.9,1.9,1.3,2.1
			c8.8,5,17.6,10,26.5,14.9C142.5,463,143.6,462.5,144.4,462.4z M75.2,407.6c0.6-4-0.8-8.2,3.1-11.3c0.6-0.4,0.3-3-0.4-3.8
			c-1.8-2-4.2-3.5-6.3-5.2c-0.3,0.2-0.6,0.3-0.9,0.5C72.3,394.4,73.8,401,75.2,407.6z M180.1,476.6c0.1-0.2,0.1-0.4,0.2-0.5
			c-9.7-3.9-19.3-7.9-29.1-11.7c-0.6-0.2-1.5,0.2-2.2,0.4c0.5,0.6,0.8,1.6,1.5,1.8c9,3.4,18,6.7,27,9.9
			C178.3,476.8,179.3,476.6,180.1,476.6z M256.3,39.4c4.4,0,9.2,0,14.4,0c0-0.7,0.1-1.8,0.2-3.1c-5.5-1-10.8-1.9-16.2-2.8
			C255.3,35.7,255.8,37.4,256.3,39.4z M97.8,98.6c4.5-5.3,8.5-10,12.5-14.7c-0.3-0.3-0.6-0.6-0.9-0.9c-2.9,1.8-5.9,3.7-8.8,5.5
			C95.8,91.6,95.6,92.1,97.8,98.6z M274.5,29.9c-5.7-1.4-11-6.2-17.9-1.6C263,28.8,268.5,31.4,274.5,29.9z M322.4,474.9
			c-7.5-0.5-15-0.6-21.2,5.9C308.7,478.7,315.6,476.8,322.4,474.9z M291.3,20.3c-5.5-3.7-10.9-7.3-17.8-6.4
			C279.7,15.5,284.6,20.6,291.3,20.3z M32.6,357.1c1.1-9.1-4.3-13.9-8.7-19.2C26.6,344,29.4,350,32.6,357.1z M254.9,45.4
			c-0.1-0.4-0.2-0.7-0.3-1.1c-3.1,1.4-6.2,2.8-10.4,4.7c2.2,1.5,4.1,2.8,6,4.1c0.3-0.4,0.7-0.9,1-1.3c-0.9-0.5-1.8-1-3.5-1.8
			C250.8,48.1,252.8,46.8,254.9,45.4z M105.5,425.5c-0.4-0.1-0.7-0.3-1.1-0.4c-0.4,1-0.9,2-1.3,3c-1.6,0-3,0-5.3,0
			c3.1,2,5.4,3.5,7.7,5C105.5,430.3,105.5,427.9,105.5,425.5z M270,9.2c-5-0.6-9.3-1.1-13.7-1.7c0,0.4-0.1,0.8-0.1,1.2
			C260.6,9.4,264.6,12.8,270,9.2z M394.6,74.8c-0.5,0.6-1,1.2-1.5,1.8c3.8,2.7,7.6,5.4,11.4,8c0.3-0.3,0.5-0.7,0.8-1
			C401.8,80.7,398.2,77.7,394.6,74.8z M306,20.1c-2.9-4.5-6.4-5.6-10.8-3.7C299.3,17.8,302.6,19,306,20.1z M282,23.7
			c-3.4-1.4-6.1-2.6-9.6-4.1c0.3,1.6,0.4,3.4,0.7,3.5C275.8,23.6,278.4,26.1,282,23.7z M264.1,45.6c0,0.3,0,0.5-0.1,0.8
			c2.4,1.4,4.9,2.8,8.2,4.7c-0.6-2.7-0.9-4-1.1-5C268.5,45.9,266.3,45.7,264.1,45.6z M456.4,191.3c0.7,0.2,1.3,0.4,2,0.6
			c0.6-2.6,1.2-5.2,1.8-7.8c-0.6-0.1-1.1-0.3-1.7-0.4C457.9,186.2,457.1,188.8,456.4,191.3z M97.8,58.7c-0.3-0.4-0.7-0.9-1-1.3
			c-2.9,2.4-5.8,4.9-8.7,7.3c0.2,0.3,0.5,0.6,0.7,0.9C91.7,63.2,94.7,60.9,97.8,58.7z M104.1,98.2c-0.3-0.2-0.7-0.4-1-0.6
			c-1.2,2.4-5.7,2.7-3.6,8.1C101.3,102.6,102.7,100.4,104.1,98.2z"/>
	</g>
</g>
<g id="Layer_3_1_" class="st0">
	<g class="st1">
		<path d="M50.4,203H25.9V3.6h24.5V203z"/>
		<path d="M260.1,203h-24.5v-89.4H130.5V203H106V3.6h24.5v88h105.1v-88h24.5V203z"/>
		<path d="M441.8,181.2c-6.5,8.8-15,15.5-25.6,20.1c-10.6,4.6-22.3,6.8-35,6.8c-13.3,0-25.8-2.6-37.6-7.7
			c-11.8-5.1-21.4-13-28.9-23.6c-7.5-10.6-11.4-23.6-11.8-39H329c0.2,15.6,5.5,27.4,15.8,35.6c10.3,8.2,22.8,12.2,37.5,12.2
			c12.7,0,23.2-3,31.3-9c8.2-6,12.2-14.1,12.2-24.4c0-8.5-2.7-15.3-8.1-20.2c-5.4-4.9-11.3-8.4-17.7-10.5
			c-6.4-2.1-15.5-4.6-27.5-7.4c-12.3-2.8-22.9-6.2-31.6-10c-8.7-3.8-16-9.5-21.9-17.1c-5.9-7.6-8.8-17.7-8.8-30.2
			c0-12.5,2.9-23.2,8.8-31.9c5.9-8.7,13.9-15.3,24.1-19.7c10.2-4.4,21.6-6.6,34.3-6.6c12.7,0,24.3,2.2,34.6,6.6
			C422.4,9.7,430.7,16.3,437,25c6.3,8.7,9.6,19.2,10,31.3h-25.1c-0.4-11.6-4.6-20.4-12.5-26.3c-8-6-18.3-9-31-9
			c-12.7,0-23.2,2.9-31.5,8.8c-8.3,5.9-12.4,14.5-12.4,25.9c0,8,2.1,14.3,6.3,19.1c4.2,4.7,9.4,8.3,15.7,10.7
			c6.3,2.4,14.6,4.8,25.1,7.3c14.6,3.2,26.5,6.5,35.7,9.8c9.2,3.3,17.2,8.7,24.1,16.2c6.8,7.5,10.3,17.7,10.3,30.6
			C451.5,161.8,448.3,172.4,441.8,181.2z"/>
		<path d="M693,181.2c-6.5,8.8-15,15.5-25.6,20.1c-10.6,4.6-22.3,6.8-35,6.8c-13.3,0-25.8-2.6-37.6-7.7c-11.8-5.1-21.4-13-28.9-23.6
			c-7.5-10.6-11.4-23.6-11.8-39h26.2c0.2,15.6,5.5,27.4,15.8,35.6c10.3,8.2,22.8,12.2,37.5,12.2c12.7,0,23.2-3,31.3-9
			c8.2-6,12.2-14.1,12.2-24.4c0-8.5-2.7-15.3-8.1-20.2c-5.4-4.9-11.3-8.4-17.7-10.5c-6.4-2.1-15.5-4.6-27.5-7.4
			c-12.3-2.8-22.9-6.2-31.6-10c-8.7-3.8-16-9.5-21.9-17.1c-5.9-7.6-8.8-17.7-8.8-30.2c0-12.5,2.9-23.2,8.8-31.9
			c5.9-8.7,13.9-15.3,24.1-19.7c10.2-4.4,21.6-6.6,34.3-6.6c12.7,0,24.3,2.2,34.6,6.6c10.3,4.4,18.7,10.9,24.9,19.7
			c6.3,8.7,9.6,19.2,10,31.3h-25.1c-0.4-11.6-4.6-20.4-12.5-26.3c-8-6-18.3-9-31-9c-12.7,0-23.2,2.9-31.5,8.8
			c-8.3,5.9-12.4,14.5-12.4,25.9c0,8,2.1,14.3,6.3,19.1c4.2,4.7,9.4,8.3,15.7,10.7c6.3,2.4,14.6,4.8,25.1,7.3
			c14.6,3.2,26.5,6.5,35.7,9.8c9.2,3.3,17.2,8.7,24.1,16.2c6.8,7.5,10.3,17.7,10.3,30.6C702.7,161.8,699.5,172.4,693,181.2z"/>
		<path d="M782,194.3c-14.7-9.2-26.2-21.8-34.3-37.7c-8.2-16-12.2-33.7-12.2-53.3c0-19.6,4.1-37.3,12.2-53.3
			c8.2-16,19.6-28.5,34.2-37.6C796.5,3.4,813.2-1.2,832-1.2c18.8,0,35.5,4.6,50.1,13.7c14.6,9.1,26,21.6,34.2,37.6
			c8.2,16,12.2,33.7,12.2,53.3c0,19.8-4,37.6-12.1,53.4c-8.1,15.9-19.4,28.4-34,37.6c-14.6,9.2-31.3,13.8-50.1,13.8
			S796.8,203.6,782,194.3z M794,32.7c-10.7,6.8-19,16.3-24.8,28.5c-5.8,12.2-8.7,26-8.7,41.6c0,16,3,30.1,9.1,42.4
			c6.1,12.3,14.6,21.9,25.6,28.8c11,6.8,23.6,10.3,37.9,10.3s26.6-3.4,37.2-10.3c10.5-6.8,18.7-16.3,24.4-28.5
			c5.7-12.2,8.5-25.9,8.5-41.3c0-16-3-30.1-9-42.4c-6-12.3-14.4-22-25.2-28.9c-10.8-6.9-23.4-10.4-37.6-10.4S804.7,25.9,794,32.7z"
			/>
		<path d="M1130.8,172.7c-7.6,11.3-17.8,20-30.5,26.2c-12.7,6.2-27,9.3-42.7,9.3c-19.9,0-37.1-4.8-51.4-14.5
			c-14.3-9.7-25.2-22.6-32.5-38.7c-7.3-16.1-11-33.7-11-52.7c0-19,3.7-36.3,11.1-52c7.4-15.7,18.4-28.2,33-37.5
			c14.6-9.3,32.2-14,52.7-14c22.8,0,41.5,5.8,56.3,17.5c14.7,11.7,23.2,28.3,25.5,50h-25.9c-1.7-13.9-7.7-24.8-18.1-32.8
			c-10.4-8-23.3-12-38.9-12c-15,0-27.8,3.7-38.5,11c-10.6,7.3-18.7,17.1-24.1,29.3c-5.4,12.2-8.1,25.6-8.1,40
			c0,14.8,2.8,28.5,8.3,41.2c5.5,12.6,13.7,22.8,24.5,30.5c10.8,7.7,23.9,11.5,39.3,11.5c16.5,0,30.1-4.5,40.6-13.5
			c10.5-9,16-21.9,16.4-38.6h25.6C1142.3,148.2,1138.4,161.4,1130.8,172.7z"/>
		<path d="M1211.1,203h-24.5V3.6h24.5V203z"/>
		<path d="M1388.6,149.2h-92l-21.4,53.8h-25.6l81.2-199.4h24.5l80.9,199.4H1410L1388.6,149.2z M1380.1,127l-37.3-94.3l-37.3,94.3
			H1380.1z"/>
		<path d="M1598.5,203h-125.3V3.6h24.5v177.5h100.8V203z"/>
		<path d="M120.2,434.3c0,19-5.3,33.5-16,43.6C93.6,488,79.9,493,63,493c-16.5,0-30.1-4.9-40.9-14.8C11.4,468.3,6,454.3,6,436v-18.2
			h24.2V436c0,11.2,2.9,19.7,8.8,25.5c5.9,5.8,13.8,8.7,23.6,8.7c9.9,0,17.8-2.9,23.9-8.7c6.1-5.8,9.1-14.4,9.1-25.8V288.5h24.5
			V434.3z"/>
		<path d="M323,288.5v129c0,24.5-7,43.2-21.1,56.1c-14.1,12.9-32.7,19.4-55.8,19.4c-15,0-28.3-2.8-40-8.4
			c-11.7-5.6-20.8-14.1-27.5-25.5c-6.6-11.4-10-25.3-10-41.6v-129h24.5v127c0,18.4,5,32.1,15.1,41.2c10.1,9,23.1,13.5,39,13.5
			c15.4,0,27.9-4.2,37.6-12.7c9.7-8.4,14.5-21.3,14.5-38.6V288.5H323z"/>
		<path d="M501.9,466.1c-6.5,8.8-15,15.5-25.6,20.1c-10.6,4.6-22.3,6.8-35,6.8c-13.3,0-25.8-2.6-37.6-7.7
			c-11.8-5.1-21.4-13-28.9-23.6c-7.5-10.6-11.4-23.6-11.8-39h26.2c0.2,15.6,5.5,27.4,15.8,35.6c10.3,8.2,22.8,12.2,37.5,12.2
			c12.7,0,23.2-3,31.3-9c8.2-6,12.2-14.1,12.2-24.4c0-8.5-2.7-15.3-8.1-20.2c-5.4-4.9-11.3-8.4-17.7-10.5
			c-6.4-2.1-15.5-4.6-27.5-7.4c-12.3-2.8-22.9-6.2-31.6-10c-8.7-3.8-16-9.5-21.9-17.1c-5.9-7.6-8.8-17.7-8.8-30.2
			c0-12.5,2.9-23.2,8.8-31.9c5.9-8.7,13.9-15.3,24.1-19.7c10.2-4.4,21.6-6.6,34.3-6.6c12.7,0,24.3,2.2,34.6,6.6
			c10.3,4.4,18.7,10.9,24.9,19.7c6.3,8.7,9.6,19.2,10,31.3H482c-0.4-11.6-4.6-20.4-12.5-26.3c-8-6-18.3-9-31-9
			c-12.7,0-23.2,2.9-31.5,8.8c-8.3,5.9-12.4,14.5-12.4,25.9c0,8,2.1,14.3,6.3,19.1c4.2,4.7,9.4,8.3,15.7,10.7
			c6.3,2.4,14.6,4.8,25.1,7.3c14.6,3.2,26.5,6.5,35.7,9.8c9.2,3.3,17.2,8.7,24.1,16.2c6.8,7.5,10.3,17.7,10.3,30.6
			C511.6,446.7,508.4,457.3,501.9,466.1z"/>
		<path d="M690.2,310.4h-67.8v177.5h-24.5V310.4h-67.8v-21.9h160.1V310.4z"/>
		<path d="M748.9,487.9h-24.5V288.5h24.5V487.9z"/>
		<path d="M962.5,457.5c-7.6,11.3-17.8,20-30.5,26.2c-12.7,6.2-27,9.3-42.7,9.3c-19.9,0-37.1-4.8-51.4-14.5
			c-14.3-9.7-25.2-22.6-32.5-38.7c-7.3-16.1-11-33.7-11-52.7c0-19,3.7-36.3,11.1-52c7.4-15.7,18.4-28.2,33-37.5
			c14.6-9.3,32.2-14,52.7-14c22.8,0,41.5,5.8,56.3,17.5c14.7,11.7,23.2,28.3,25.5,50h-25.9c-1.7-13.9-7.7-24.8-18.1-32.8
			c-10.4-8-23.3-12-38.9-12c-15,0-27.8,3.7-38.5,11c-10.6,7.3-18.7,17.1-24.1,29.3c-5.4,12.2-8.1,25.6-8.1,40
			c0,14.8,2.8,28.5,8.3,41.2c5.5,12.6,13.7,22.8,24.5,30.5c10.8,7.7,23.9,11.5,39.3,11.5c16.5,0,30.1-4.5,40.6-13.5
			c10.5-9,16-21.9,16.4-38.6h25.6C974,433,970.1,446.2,962.5,457.5z"/>
		<path d="M1016.9,487.9V288.5h128.2v21.9h-103.7v65.5h96v22.2h-96v67.8h109.1v21.9H1016.9z"/>
		<path d="M1440.5,487.9h-23.9l-49.3-162.4l-49.6,162.4h-23.9l-53.6-199.4h26.2l40.4,163.5l49-163.5h23.9l49,163.8l40.4-163.8h24.8
			L1440.5,487.9z"/>
		<path d="M1531,487.9V288.5h128.2v21.9h-103.7v65.5h96v22.2h-96v67.8h109.1v21.9H1531z"/>
		<path d="M1705.9,487.9V288.5h128.2v21.9h-103.7v65.5h96v22.2h-96v67.8h109.1v21.9H1705.9z"/>
		<path d="M1935.5,388.7l-30.2,31.6v67.5h-24.5V288.5h24.5v101.1l93.4-101.1h31.3l-77.5,81.8l83.7,117.6h-30.5L1935.5,388.7z"/>
	</g>
</g>
<g id="Layer_2" class="st0">
	<g id="Layer_1_1_" class="st1">
		<g>
			<path d="M1198.9,57c-11-15.2-23-24.3-48.3-24.3c-23,0-36.6,10.4-36.6,29.2c0,21.4,16.8,29.8,47.9,36.6
				c45,9.7,68.4,26.6,68.4,66.7c0,33.4-22.4,64.1-76.1,64.1c-38.2,0-65.1-11.7-83.6-36.6l29.5-20.4c13.3,15.9,26.6,24.3,52.2,24.3
				c30.8,0,40.5-13.6,40.5-29.8c0-17.8-10-28.8-48.9-37.3c-43.1-9.1-67.4-29.8-67.4-67.7c0-33.7,22-61.9,74.5-61.9
				c35.6,0,60.6,12,76.5,36.6L1198.9,57z"/>
			<path d="M1342.7,229.4c-49.9,0-83.6-30.1-83.6-100.4v-28.5c0-70.4,33.7-100.5,83.6-100.5c50.2,0,83.9,30.1,83.9,100.4v28.5
				C1426.6,199.2,1392.9,229.4,1342.7,229.4z M1296.7,128.9c0,48.3,16.2,67.7,46,67.7c29.8,0,46.3-19.4,46.3-67.7v-28.5
				c0-48.3-16.5-67.7-46.3-67.7c-29.8,0-46,19.4-46,67.7V128.9z"/>
			<path d="M1586.3,72.2c-5.8-27.2-20.4-39.5-45-39.5c-29.8,0-46,19.4-46,67.7v28.5c0,47.6,16.2,67.7,46,67.7
				c25.6,0,39.2-12.3,45-39.5h36c-7.5,50.2-36.6,72.2-81,72.2c-49.9,0-83.6-30.1-83.6-100.4v-28.5c0-70.3,33.7-100.4,83.6-100.4
				c44.4,0,73.9,23.6,81.3,72.2H1586.3z"/>
			<path d="M1697.8,226.4h-37.6V2.9h37.6V226.4z"/>
			<path d="M1725.9,226.4l77.7-223.5h35.6l77.7,223.5h-39.8l-15.2-46.3h-80.7l-15.2,46.3H1725.9z M1791.7,147.7h59.6l-29.8-90.4
				L1791.7,147.7z"/>
			<path d="M1980.3,194.1h99.5v32.4h-137V2.9h37.6L1980.3,194.1L1980.3,194.1z"/>
		</g>
		<g>
			<path d="M1097.4,451.2c6.1,8.3,15.5,13.9,28,13.9c22.4,0,33.8-12.2,33.8-50.1V299.4h32.1v115.5c0,56.5-24.4,78.1-64.5,78.1
				c-24.4,0-44.3-8.9-56.2-26.6L1097.4,451.2z"/>
			<path d="M1376.4,299.4V413c0,56.5-29.1,80.1-71.5,80.1s-71.5-23.5-71.5-79.8V299.4h32.1v113.8c0,36.6,13,51.8,39.3,51.8
				c26.3,0,39.3-15.2,39.3-51.8V299.4H1376.4z"/>
			<path d="M1517.9,345.6c-9.4-13-19.7-20.8-41.3-20.8c-19.7,0-31.3,8.9-31.3,24.9c0,18.3,14.4,25.5,41,31.3
				c38.5,8.3,58.4,22.7,58.4,57.1c0,28.5-19.1,54.8-65.1,54.8c-32.7,0-55.7-10-71.5-31.3l25.2-17.5c11.4,13.6,22.7,20.8,44.6,20.8
				c26.3,0,34.6-11.6,34.6-25.5c0-15.2-8.6-24.7-41.8-31.9c-36.8-7.8-57.6-25.5-57.6-57.9c0-28.8,18.8-52.9,63.7-52.9
				c30.5,0,51.8,10.3,65.4,31.3L1517.9,345.6z"/>
			<path d="M1697.4,299.4v28h-54.8v163.2h-32.1V327.3h-55.1v-28h142V299.4z"/>
			<path d="M1755.3,490.5h-32.1V299.4h32.1V490.5z"/>
			<path d="M1902.1,358.6c-5-23.3-17.5-33.8-38.5-33.8c-25.5,0-39.3,16.6-39.3,57.9v24.4c0,40.7,13.8,57.9,39.3,57.9
				c21.9,0,33.5-10.5,38.5-33.8h30.7c-6.4,42.9-31.3,61.8-69.2,61.8c-42.7,0-71.5-25.8-71.5-85.9v-24.4c0-60.1,28.8-85.9,71.5-85.9
				c37.9,0,63.2,20.2,69.5,61.8H1902.1z"/>
			<path d="M2079.7,299.4v28h-85v50.4h76.7v27.7h-76.7v57.3h85v27.7h-117.2V299.4H2079.7z"/>
		</g>
		<g>
			<path d="M2282,437.8v21.5l-132.3,31.2v-23.8l94.5-20.3l-94.5-27v-20.5l95.1-27.6l-95.1-20.3v-23.8l132.3,31.2v21.7l-96.2,28.9
				L2282,437.8z"/>
			<path d="M2149.7,230h19.4v58.8h34.9v-53.1h19.2v53.1h39.7V230h19.2v81.1h-132.3L2149.7,230L2149.7,230z"/>
			<path d="M2149.7,127.8h19.4v58.8h34.9v-53.1h19.2v53.1h39.7v-58.8h19.2v81.1h-132.3L2149.7,127.8L2149.7,127.8z"/>
			<path d="M2282,26.6L2221.6,65l25.1,19.6h35.3v22.2h-132.3V84.5h63.8l-63.8-48.7V8.6l53.3,41.8L2282,0V26.6z"/>
		</g>
	</g>
	<g id="Layer_2_1_" class="st1">
		<path d="M737.6,0C748,0,758.5,0,769,0c1.3,0.2,2.5,0.5,3.8,0.7c11.5,1.7,23.1,2.6,34.4,5.2c57.6,13.3,105,43.1,141.3,89.9
			c31.1,40.1,48,85.7,51.2,136.3c1.5,23.8-0.3,47.5-6.1,70.7C979.4,360.1,949,407,901.7,442.4c-36.9,27.7-78.5,43.6-124.5,48.3
			c-27.3,2.8-54.3,1.3-80.9-5.3c-71.7-17.9-125.8-59-161.3-124c-14.1-25.7-22.9-53.4-26.7-82.6c-0.8-6-1.5-12.1-2.3-18.1
			c0-9.9,0-19.9,0-29.8c0.2-1.1,0.5-2.3,0.7-3.4c1.7-11.6,2.4-23.4,5.1-34.8c16.5-69.9,55.6-123.5,117.7-159.8
			c28-16.3,58.2-26.5,90.3-30.7C725.7,1.5,731.6,0.7,737.6,0z M908.3,92.2c-2.8-2.7-5.6-5.4-8.7-8.5C899.7,87.3,904.9,92,908.3,92.2
			c0,0.4-0.1,1.1,0.1,1.3c3.9,3.6,7.8,7.1,11.9,10.8C918.9,96.1,914.7,92.8,908.3,92.2z M920,111c0.4,2.4,0.8,4.7,1.2,7.3
			c-1.7,0.2-3,0.3-4.5,0.5c4.4,5,7.2,6.7,10.4,6.4C924.8,120.4,922.4,115.7,920,111c-1.3-1.1-2.6-2.1-3.9-3.2
			c-6.3-5.5-12.7-11.1-19.2-16.8c-1.1,1.5-1.8,2.3-2.5,3.2c3,3.1,6.3,5.7,8.4,9.1C907.1,109.8,913.3,110.8,920,111z M581.2,186.2
			c1.4,2.2,2.9,4.5,4.3,6.7c0.2-3.3,0.5-6.7-3.9-7.1c-3.1-10.4-3.5-21-3.2-32.7c-3.4,3.9-6.3,7-8.9,10.3c-0.5,0.6-0.5,2.1-0.1,2.8
			C573.2,172.9,577.2,179.6,581.2,186.2z M853.3,78.1c-1.2,3.9-2.2,7.1-3.2,10.3c-0.8,2.8,1,6.8,3.7,7.2c9.7,1.7,19.5,2.2,29-0.9
			c8.3-2.7,13.4-10.1,11.5-17.1c-1.1-4.1-2.9-8.1-4.9-11.8c-4.3-7.9-11.3-13.6-18.3-18.6c-20.3-14.6-42.7-23.5-68.2-21.9
			c-4.7,0.3-9.6,2.3-13.9,4.5c-5.3,2.6-7.6,8.8-6.6,14.3c0.1,0.7,0.8,1.9,1,1.8c4.1-0.8,3.8,3.4,6.4,4.9c-1.7,1-2.9,1.7-4.3,2.5
			c2.3,0.9,4.4,1.7,6.5,2.5c-0.1,0.4-0.1,0.7-0.2,1.1c-1,0.3-2,0.7-2.9,1c0.5,0.8,0.9,1.6,1.3,2.3c1.4-1.2,2.4-2.2,3.5-3.1
			c2.5,2.7,1.5,4.7-0.7,6.7c3.4,3.1,6.7,6.1,10,9c1.4,1.2,2.9,2.2,4.4,3.3c0.5-6,2.3-7.8,7.6-5.6c1.3,0.6,3.3-0.2,5-0.6
			c1.1-0.3,2.1-1.5,3.1-1.5c4.1,0.1,8.3,0.1,10,4.1c1.7-1.1,3.1-2.8,4.1-2.6c3.4,0.5,7.6,0.1,8.7,5.1c-0.9,0.2-1.9,0.3-2.8,0.4
			c0,0.4-0.1,0.8-0.1,1.2C846.2,77.1,849.5,77.6,853.3,78.1z M727.6,307.5c-7.3,15.8-14.6,31.7-22.3,48.3
			c18.4,7,36.3,13.8,54.5,20.8c6.9-17,13.5-33.2,20-49.2C762.3,320.7,745.2,314.2,727.6,307.5z M705.2,224.3
			c-9.5,16-19.1,32.4-29.2,49.5c16.5,8.9,32.6,17.5,49,26.4c8.3-18,16.3-35.3,24.1-52.3C734.3,240,720,232.3,705.2,224.3z
			 M729.9,302.6c17.5,6.6,34.5,13.1,52,19.7c6.4-18.9,12.5-36.7,18.5-54.3c-15.7-6-30.9-11.9-46.4-17.8
			C746.2,267.3,738.3,284.4,729.9,302.6z M785.3,328.8c-6.7,16.4-13.4,32.4-20.3,49.4c17.9,4.1,35.8,8.2,54.1,12.4
			c4.6-12.4,8.8-23.8,12.9-35.3c1-2.7,3.1-5.6,0.3-8.6c-0.3-0.4,0.1-1.8,0.6-2.5c2.1-3,0.7-4.1-2.3-4.7c-6.5-1.3-13-2.5-19.5-4.1
			C802.7,333.4,794.1,331.1,785.3,328.8z M787.4,323.5c3.1,0.9,6.1,1.8,9.1,2.5c11.9,2.8,23.8,5.6,35.7,8.2c1.5,0.3,4.4,0,4.8-0.9
			c2.6-5.9,6.4-11.5,4.9-18.5c-0.2-0.9-0.1-2,0.2-2.9c1.6-4.2,3.7-8.2,4.9-12.5c1.7-6.4,2.7-12.9,3.9-19.1
			c-15.5-3.7-30.3-7.2-45.2-10.7C799.6,287.4,793.6,305.2,787.4,323.5z M628.8,239.5c14.5,10.7,28.5,20.9,42.6,31.3
			c10.2-17.2,19.8-33.4,29.3-49.4c-12.6-9.3-24.9-18.3-37.7-27.7C651.8,208.6,640.6,223.6,628.8,239.5z M740.2,171.4
			c-10.6,15.9-21.2,31.8-32.1,48.3c14.7,7.9,28.8,15.5,43.2,23.3c8.3-18,16.2-35.2,24.2-52.4C763.8,184.1,752.4,178,740.2,171.4z
			 M818,207.2c-12.7-4.9-25-9.6-37.4-14.4c-8,17.3-15.9,34.5-24.2,52.5c15.3,5.9,30.2,11.6,45.7,17.5
			C807.5,243.7,812.8,225.4,818,207.2z M807.4,264.4c14.9,3.5,29.5,6.9,45,10.5c2.5-19.9,4.9-38.9,7.3-57.7
			c-12.7-2.9-24.6-5.7-36.5-8.5C817.9,227.2,812.8,245.3,807.4,264.4z M816.3,395.9c-17.1-4.2-33.6-8-49.9-12.3
			c-2.9-0.8-4-0.3-5.3,2.3c-5.6,11.5-11.5,22.8-17.2,34.2c-0.5,1-0.9,2-1.8,3.8c17.1,3.7,33.6,7.3,50.1,10.7c1,0.2,2.9-0.9,3.6-2
			c4.4-7,8.6-14,12.6-21.1C811.3,406.4,813.8,401,816.3,395.9z M700.5,353.1c7.5-16.3,14.8-32.2,22.1-47.9
			c-16.5-8.9-32.7-17.7-49-26.5c-2.7,5.1-5.2,10.3-8.2,15.2c-2.2,3.6-2.7,6.8-0.3,10.4c0.6,0.8,0.6,2.3,0.5,3.3
			c-0.4,3,0.7,4.8,3.6,6c2.7,1.1,5.8,2.3,7.8,4.4c6.2,6.7,11.4,14,11.1,23.8c-1.5,0.8-3,1.5-5.1,2.6
			C689,347.4,694.5,350.1,700.5,353.1z M666.4,189.6c12.8,9.4,25,18.2,37.1,27.1c11.1-16.7,21.6-32.5,32.1-48.4
			c-5.9-4.7-6-4.7-10.5-3.7c-0.4-4.8-5.4-9-10.9-9.2c-2.4-0.1-5.3,3.1-5.5,6.2c-9.1-5.2-11.9-5.6-17-0.3
			C683.2,170.2,675.2,179.7,666.4,189.6z M607.9,183.1c0.9,0.7,1.4,1.1,1.9,1.4c4.6,3.1,4.6,5.6-0.3,7.8c-2.9,1.3-3.9,4.8-7.7,5.4
			c-2,0.3-3.5,3.7-5.7,6.2c1.6,1.4,3.7,2.6,5,4.4c2,2.8,3,6.5,5.3,9c5.9,6.4,12.3,12.3,18.8,18.6c3.9-5.6,7.4-10.7,11.1-16
			c-2-0.7-3.6-1.3-6-2.3c2-0.7,3.1-1.1,3.9-1.4c-1.7-9.5-6.1-17.4-14.5-23.5c1.6-0.2,3.1-0.8,4-0.3c3.4,2,7.3,3.2,8.9,7.5
			c2,5.2,4.4,10.3,6.8,15.7c6.8-8.8,13.4-17.3,19.9-25.8c-3.9-3.6-7.5-6.9-10.8-9.9c-2.8,4.1-5.4,8-8.3,11.7
			c-0.5,0.7-2.2,0.4-3.3,0.6c-0.2-1.1-0.8-2.5-0.4-3.4c2-4.8,4.3-9.5,6.6-14.5c-4.2-4.5-8.8-9.4-13.6-14.6
			C622.1,167.7,615.1,175.3,607.9,183.1z M869.2,400.1c-15.5-1.3-30.2-2.6-44.9-3.6c-1.1-0.1-2.8,1.4-3.5,2.6
			c-5.4,9.8-10.7,19.7-16,29.5c-1.3,2.3-2.8,4.5-4.4,7.2c1.6,0.3,2.6,0.6,3.6,0.7c8.8,0.7,17.7,1.4,26.5,2
			c14.7,1.1,14.9,1.2,22.8-11.3C858.9,418.4,863.9,409.3,869.2,400.1z M558.3,247.7c9.4-15.7,18.3-30.4,27-45
			c-7-10.7-14.1-21.7-21.3-32.6c0,0-0.4,0.3-0.6,0.6c-9.7,12.4-17.8,25.7-24.6,39.9c-0.6,1.3-0.4,3.7,0.4,5
			C545.4,226.2,551.8,236.7,558.3,247.7z M830.9,149.2c-8.9-3.4-17.2-6.6-25.7-9.8c-7.4,16-14.8,32-22.4,48.5
			c12.3,4.7,24,9.2,36.5,14C823.3,183.7,827.1,166.4,830.9,149.2z M859.6,210.9c0.1-1.2,0.4-2.4,0.4-3.5c0.3-15.3,0.5-30.5,1-45.8
			c0.1-4.3-0.9-6.1-5.5-6.7c-6.5-0.8-12.9-2.8-19.3-4.2c-3.9,17.6-7.7,34.9-11.6,52.8c11.2,2.6,22.2,5.1,33.2,7.6
			C858.3,211.1,858.8,211,859.6,210.9z M720.8,456.5c14.8,3.2,29.4,6.4,44,9.5c0.7,0.1,1.6-0.1,2.1-0.5c9-7.2,16.5-15.7,23.2-24.7
			c-16.4-4.1-32.5-8.1-48.6-12c-1-0.2-2.7,0.7-3.3,1.6C732.4,438.7,727,447.1,720.8,456.5z M743.6,167c11.6,6.3,22.8,12.4,34.3,18.6
			c7.7-16.7,15.1-32.7,22.4-48.6c-8.2-4.4-15.9-8.6-24.2-13.1c-1.8,5.5-10.6,7.7-6.2,16c-2.4,0-4.3,0-6.1,0c1.1,0.9,2.5,0.4,3.2,0.9
			c1.4,0.9,3.5,2.5,3.4,3.6c-0.2,2.2-1.6,4.4-2.9,6.3c-0.3,0.4-2.5-0.1-3.6-0.6c-2-0.9-7.6,0-9.2,2C751,156.9,747.5,161.7,743.6,167
			z M576.8,334.1c0.8-1.7,1.3-2.3,1.3-2.9c0.1-3.4,0.2-6.9,0.1-10.3c-0.1-5.1-0.1-10.2-0.7-15.3c-0.4-3.2-2.2-6.2-2.5-9.4
			c-0.2-2.3,1.1-4.8,1.7-7.2c3.1,0.9,4-0.7,3.8-3.4c-0.1-2.2,0.8-5.2-0.3-6.4c-6.3-7.1-13-13.9-19.8-20.9
			c-6.3,13.5-11,27.3-14.1,41.7c-0.2,0.8,0.4,2,1,2.7C557,313,566.6,323.2,576.8,334.1z M599.7,274.5c0-2-0.7-4.3,0.1-5.3
			c3.5-4.1,4-9.1,5.1-14c0.6-2.8-1.6-6-4.1-5.3c-1.2,0.3-2,1.9-3.4,3.3c-0.5-1.2-0.8-2.2-1.2-3.2c-0.7-1.8-1.5-3.5-2.1-5.3
			c-0.6-1.8-1.2-3.6-1.8-5.5c-0.8-2.4,1.4-5.6-2.3-7.1c-0.3-0.1-0.3-1.5-0.1-2.1c2.6-7.1,3.9-14.1-1.5-21.3
			c-0.2,0.4-0.5,0.9-0.7,1.4c-7.8,13.2-15.7,26.5-23.3,39.8c-0.6,1-0.2,3.4,0.6,4.3c6.2,6.9,12.6,13.7,18.9,20.4
			c0.6,0.6,1.5,1.3,2.2,1.3c4.5-0.3,8.9-0.7,13.4-1.1C599.7,274.7,599.9,274.4,599.7,274.5z M667.9,436.8
			c15.5,5.7,30.5,11.2,45.4,16.7c0.7,0.3,2.2-0.2,2.7-0.8c6.1-8.5,12.1-17.1,18.3-25.9c-11.3-4-21.6-7.7-30.5-10.9
			c-5.4,3.4-9.9,6-14.2,8.9c-5.6,3.8-10.2-1-15.5-1.6C672.2,427.5,670.3,431.7,667.9,436.8z M540.5,295.5
			c5.2-13.9,10-26.8,14.9-39.6c0.8-2,0.7-3.3-0.6-5.3c-6.2-9.2-12.1-18.5-18.1-27.8c-0.6-1-1.2-1.9-1.8-2.9c-0.5,0-0.9-0.1-1.4-0.1
			c-3.2,11.9-6.5,23.7-9.4,35.7c-0.8,3.3-2,7.5-0.7,10.1C528.6,275.7,534.7,285.4,540.5,295.5z M737,421.9c7-13.7,13.7-27,20.6-40.6
			c-1.2-0.5-2-0.9-2.9-1.2c-11-4-22-7.8-33-12c-5.6-2.1-11-4.7-16.5-7c-0.7-0.3-1.6-0.1-2.3-0.1c0.1,0.8,0,1.8,0.5,2.3
			c1.8,1.8,3.6,3.6,5.7,5.1c5.8,4.2,12.7,7,16,14.1c0.7,1.5,2.2,3,3.7,3.8c5.6,3,6.2,4.8,2.8,10.3c-2.5,4-5.9,5.5-10.4,6.5
			c-5.5,1.2-10.6,4-15.9,6.1c0.1,0.5,0.2,1,0.3,1.6C715.7,414.4,726,418,737,421.9z M866.5,157.2c-0.1,1.1-0.2,2.2-0.2,3.2
			c-0.3,14.2-0.4,28.5-0.8,42.7c-0.2,8.9-0.3,9.1,8.3,10.1c7.8,0.9,15.8,1,24.5,1.6c-0.9-3-1-5.4-2.2-7s-4.9-2-5.2-3.5
			c-0.9-4.2,3.2-1.7,4.8-2.8c0.1-0.1,0.2-0.2,0.5-0.5c-0.3-2.1-0.6-4.4-0.9-6.4c-2.2,0.4-4.1,0.7-6.3,1.1c1.8-5.9,1.8-5.9-1.9-7.6
			c3.1-2.2,4.5-4.5,2.9-8.6c-1-2.5-1.3-4.5-4.4-4.6c-0.4,0-1.1-0.8-1.2-1.3c-0.5-2.7-1.1-5.4-1.1-8.1c0-1.3,1.5-2.6,2.1-3.5
			c1.5,1.5,2.2,2.3,3,3.2c0.3-0.2,0.6-0.5,1-0.7c-0.5-1.9-1-3.9-1.4-5.6C880.7,158.2,873.7,157.7,866.5,157.2z M873.1,277.2
			c0.8-1.8,1.3-3.3,2.1-4.6c1.2-2,2.2-4.5,4-5.5c3-1.7,5.3-3.6,6.5-6.8c1.1-2.8,2.4-4.1,5.9-2.2c1.9,1.1,5.2,0.8,7.4-0.1
			c1-0.4,0.9-3.7,1.4-6.1c-4.2,0.8-7.6,1.5-11.9,2.3c-1.7-2-3.6-6.2-8.2-4.5c-0.8-3.4-1.9-6.3-1.9-9.1c0-3.1,1.2-6.1,1.9-9.1
			c0.2-0.8,0.1-1.6,0.1-2.3c-0.6-6.1,1.4-7.8,7.4-6.5c3.1,0.6,6.2,0.8,9.3,1.2c0.3,0,0.7-0.2,1.1-0.3c0-1.2,0-2.2,0-3
			c-11.3-0.8-22.3-1.6-33.2-2.4c-2.4,19-4.8,38.1-7.2,57.3C863,275.9,867.9,276.5,873.1,277.2z M853.1,437.6
			c0.5,0.2,0.7,0.4,0.9,0.4c11.1-1.6,22.1-3.2,33.2-5c1.1-0.2,2.3-1.2,3.1-2.2c4.3-5.3,8.3-10.8,11.7-16.9c3.7-6.6,0-11.6-0.3-16.9
			c-8.2,0.6-15.8,1.3-23.5,1.8c-2.1,0.1-3.2,0.8-4.1,2.7c-4.4,8.3-8.8,16.6-13.5,24.7C858.3,430.1,855.6,433.8,853.1,437.6z
			 M774.5,467.2c0.2,0.1,0.9,0.5,1.6,0.5c7.8,0.6,15.6,0.8,23.4,1.8c10.3,1.3,18.8-1.4,25.8-9.2c4.8-5.3,10.1-10.2,15.3-15.3
			c-14.5-1.3-28.1-2.5-41.7-3.6c-1.1-0.1-2.6,0.5-3.3,1.3C788.5,450.8,781.5,459,774.5,467.2z M570,374.3c2-11.8,3.8-22.5,5.4-33.3
			c0.1-1-0.7-2.4-1.5-3.2c-4.3-4.2-8.8-8.1-13.1-12.4c-5.4-5.4-10.6-11-15.9-16.6c-0.4,0-0.9,0.1-1.3,0.1c-0.3,11.5-0.6,23-0.8,34.5
			c0,1,0.4,2.1,1,2.8C552.6,355.7,561.2,364.9,570,374.3z M596.9,95.2c-12.5,9.2-23.6,19.2-33.9,30c-3,3.1-5,6-3.7,10.6
			c2.2,7.5,3.9,15.1,5.3,20.6c7.3-6.4,14.7-12.8,21.9-19.4c1.7-1.5,2.6-4,3.7-6.1c1.1-2.1,1.8-4.3,2.9-6.3c2.2-4,4.8-7.9,6.9-11.9
			c0.6-1.1,0.1-2.8,0.1-4.5c-3.1,4.1-6.2,7.6-8.7,11.5c-2.4,3.6-4.2,7.6-6.2,11.4c-0.6-0.3-1.2-0.7-1.8-1c2.2-4.2,4.4-8.5,6.8-12.7
			c1.3-2.2,3.3-4,4.4-6.4c0.9-1.9,0.5-4.4,3.7-4.4c0.3,0,0.9-1.3,0.8-1.8C598.4,101.6,597.7,98.6,596.9,95.2z M534.8,205.8
			c0.5-0.7,0.7-1,0.9-1.4c7.2-13.8,15.2-27.1,25-39.1c0.6-0.7,0.9-2,0.7-2.8c-2.7-8.5-5.4-16.9-8.2-25.4
			c-9.4,11.8-17.8,24.5-24.7,38.1c-0.4,0.9-0.5,2-0.4,3C528.9,187.5,531.1,196.5,534.8,205.8z M824.6,391.2
			c12.4,0.9,24.4,1.9,36.3,2.6c10.7,0.7,10.7,0.6,14.7-9.5c0.5-1.3,1-2.7,1.9-5.2c-6.2,0.3-11.8,0.2-17.4,1
			c-4.1,0.6-9.1-0.8-11.5-4.3c-1.9-2.8-4.2-5.2-6.3-7.9c-0.8-1.1-1.6-2.3-2-3.5c-0.8-2.6-1.3-5.2-1.9-7.9c-0.3,0.1-0.6,0.2-1,0.2
			C833.4,368.1,829.2,379.2,824.6,391.2z M711.2,459.2c-15.6-6-30.5-11.8-45.6-17.6c-2.6,5.6-5.1,11.2-8,17.5
			c12.2,4.5,23.9,8.8,35.6,12.9c1.1,0.4,2.9,0,3.8-0.7C701.8,467.4,706.4,463.4,711.2,459.2z M938.4,264.2
			c-1.6-11.9-3.1-23.3-4.8-34.7c-0.1-0.9-1.1-1.7-1.8-2.5c-1.7-1.9-3.7-3.6-5-5.7c-2.6-4.1-4-4.4-6.7-0.5c-1.5,2.2-3,3.3-5.8,2.9
			c-0.9-0.1-2,0.4-3.4,0.7c1,4.3-0.6,7.3-4.2,9.5c-1,0.6-1.7,2.4-1.7,3.7c0,5.2,0.4,10.4,0.6,15.7c8.5-2.1,16.8-4.5,25.4-5.5
			c0,2.2-0.5,3.7,0.1,4.6c1.5,2.3,0.8,4.1-0.2,6.2c-1.4,2.9-0.4,4.5,2.8,5.1C934.9,263.9,936.1,264,938.4,264.2z M957,242.3
			c-0.4,0.1-0.8,0.3-1.2,0.4c-3.1-5.1-7.4-9.9-9-15.4c-1.6-5.6-6-7-9.7-10.4c0,6.7,2.4,11.2,8.1,13.7c-0.9,0-1.8,0-2.7,0
			c0.9,3.8,0.9,3.8-1.4,10.3c-0.1,0.3,0,0.8,0.1,1.2c0.8,7.5,1.7,15,2.2,22.6c0.2,3.7,2.2,5.2,5.3,5.1s4.1-2,4-5.3
			c-0.2-5.4,2.8-7.2,8.1-5.9c2.3,0.6,4.8,0.4,7.8,0.7c-0.9-5.8-1.6-10.9-2.4-16c-0.4-2.3-0.3-5.4-1.7-6.6c-3.7-3.2-4.3-7.4-4.8-11.5
			c-0.3-3.3-1.6-3-3.8-2.6c-0.2,3.4-0.5,6.4-0.7,9.6c0.5,0.6,1.3,1.6,2.1,2.6c-0.7,0.4-1.3,0.9-1.4,0.9
			C956.4,237.9,956.7,240.1,957,242.3z M653,42.9c-8.2,3.2-16,6-23.6,9.4c-7.2,3.3-14.1,7.2-21.1,10.9c-1,0.5-2.1,1.4-2.4,2.4
			c-1.6,6.1-3,12.4-4.5,18.5c0.4,0.1,0.8,0.3,1.2,0.4c0.5-0.3,1-0.7,1.6-1c15.2-8.1,28.6-19.5,45.2-25c0.8-0.2,1.6-1.3,1.8-2.1
			C651.9,52.2,652.3,48,653,42.9z M668.8,275.8c-14.5-10.7-28.5-21-42.6-31.4c-2.1,3.4-4.3,6.9-7.1,11.4c5.5,0.6,10.1,1.1,14.9,1.6
			c-1.5,1.3-3.1,2.3-4.2,3.6c-0.9,1.1-1.2,2.7-1.8,4.1c1.9,0,3.8,0.2,5.7,0c0.3,0,0.6-1,1.3-2.2c1,2.1,1.5,3.3,2.1,4.4
			c1,1.8,1.8,3.8,3.2,5.2c6.7,6.1,13.7,12,20.5,17.9C663.3,285.9,666.1,280.8,668.8,275.8z M860.3,102.4c2.2,16.2,4.5,32.5,6.8,49.2
			c6,0.4,12.4,0.8,19.1,1.3c-0.2-1.4-0.2-2-0.4-2.6c-5.1-13.9-10.1-27.8-15.4-41.6C867.7,101.9,866.8,101.7,860.3,102.4z
			 M704.3,475.6c5.6,1.3,12.9,3.2,20.2,4.8c3.9,0.9,8.2,2.8,11.8,1.9c8.3-1.9,15.8-6.2,22.8-11.1c-13.7-3.5-27.1-6.9-40.5-10.3
			c-0.8-0.2-2.2,0.1-2.7,0.7C711.9,466.4,708,471.2,704.3,475.6z M625.9,155.6c-1.8-2.5-3.4-5.2-5.4-7.5c-2.8-3.2-6.7-2.9-9.7,0.3
			c-1.5,1.6-3.2,2.9-4.9,4.3c-2.3,2-5.2,3.7-6.9,6.2c-2.9,4.1-5.1,8.6-7.5,13c-2.2,3.9-0.5,9.7,3.3,12c1.2,0.7,2,2,2.9,3.1
			c4.4-5.1,9-10.5,13.7-15.7C616.1,166,621,160.9,625.9,155.6z M616.7,429.2c0.9,3.4,0.7,7.5,2.5,8.6c10.8,6.6,22.1,12.6,33.5,18.9
			c2.9-6.4,5.5-12,8.1-17.7c-5.8-2.9-11.2-5.7-16.7-8.3c-1.1-0.5-2.5-0.4-3.8-0.3c-5.3,0.3-10.4,0.6-14.2-4.3
			c-0.8-1.1-2.1-1.9-4.1-3.5c1.4,3.5,2.4,5.9,3.9,9.5C622.6,431,620.3,430.3,616.7,429.2z M558.9,120.8c0.5-0.1,0.8,0,0.9-0.2
			c11.8-10.3,23.5-20.6,35.2-31c0.7-0.6,1.3-1.6,1.4-2.5c0.6-5.8,1.1-11.6,1.7-18.2c-7.5,5.9-14.7,11.4-21.7,17.2
			c-4.2,3.5-8.6,7.1-11.5,11.6C560.8,104.6,559.5,112.7,558.9,120.8z M518.2,253.9c0.3-0.7,0.5-1.1,0.6-1.5
			c4.1-12.7,8.2-25.4,12.2-38.1c0.4-1.2,0-2.8-0.4-4c-1.7-5.4-3.6-10.8-5.4-16.3c-0.7-2.2-1.1-4.5-1.8-7.4
			C511.4,213.2,509.2,228.2,518.2,253.9z M521.4,275.8c-1.1,11-0.5,22,1.1,32.8c1.6,10.7,7.8,19.3,13.7,27.8
			c1.2-10.9,2.4-21.4,3.4-32c0.1-1.1-0.1-2.4-0.7-3.2C533.3,292.8,527.4,284.5,521.4,275.8z M843.6,107.3c0,2.3,0,3.9,0,5.5
			c2.2,0.4,4.1,0.8,6.1,1.2c-2.3,2.1-4.7,3.3-7.1,4.6c-0.8,0.5-2,1.2-2.1,1.9c-1.2,8.1-2.3,16.2-3.4,24.6c7.9,1.8,15.4,3.6,23.4,5.4
			c-0.3-4.6-0.6-8.4-0.9-12.7c-8.9,3.9-8.4-4.8-13.3-8.5c2.3-0.8,4.8-1.8,4.9-1.6c1.7,3.6,4.6,1.9,7.8,1.9c-1.8-9.6-3.5-19-5.2-27.7
			c-2.4,1.1-4.2,1.8-6,2.6c1.2,2.5,2.5,5.2,3.8,7.8c-0.4,0.3-0.8,0.5-1.2,0.8C848.4,111.3,846.3,109.6,843.6,107.3z M825,468.1
			c0.1,0.3,0.2,0.6,0.4,0.9c10.1-2.1,20.9-1.1,29.9-7.6c8.4-6.1,17.6-11.4,23.5-20.5c-7.5,0.9-14.7,2.3-22,2.5
			c-5.7,0.1-9.8,1.6-13.7,6.2C837.7,456.2,831.1,462,825,468.1z M874.1,102.8c0.4,1,0.9,2.1,1.4,3.3c5.1,13.8,10.3,27.5,15.2,41.3
			c1.9,5.4,1.7,5.5,7.1,4.4c0.8-5.1,1.7-10.1,2.3-15.1c0.2-1.9,0.1-4.2-0.8-5.8c-4.9-8.3-10.2-16.4-15.2-24.6
			C881.7,102.8,879.4,99.7,874.1,102.8z M814.1,86.9c-0.4-0.2-0.7-0.5-1.1-0.7c-12.5,9.5-22.7,21.3-33.2,33.6
			c7.5,4,14.5,7.7,21.2,11.3c-0.3-3.7-0.2-7.1-0.9-10.2c-1.1-5.1,0.8-9.5,3.1-13.6c1-1.8,3.9-2.4,5.8-3.7c1.2-0.8,2.8-1.6,3.4-2.8
			c1.4-2.7,0.4-4.9-2.3-6.2C811.6,91.9,812.9,89.4,814.1,86.9z M611.6,257.2c3.6-5.7,7.1-11.3,10.5-16.8
			c-6.3-5.9-12.3-11.5-18.5-17.4c-2,2.8-4,5.4-5.9,8.2c-3.4,5-0.9,13.6,4.7,15.6c2.2,0.8,3.4,1.7,3.7,4.2
			C606.5,254,607.9,256.5,611.6,257.2z M584.8,385.8c0.8-1.6,1.7-3.2,2.4-4.8c1.7-4.4,3.9-8.8,4.9-13.4c2-9.6-2.6-18.5-12.2-23.6
			c-1.1,8.8-1.9,17.3-3.3,25.8c-1.2,7.4,1.5,12.5,8,15.9C584.7,385.7,584.8,385.8,584.8,385.8z M775.5,73c-0.1,1-0.1,1.5-0.1,2
			c-0.2,3.2-1.9,5-5.1,5.5c-2.8,0.4-5.9,2.7-7.6-2.2c-0.9-2.8-5.5-3-8-0.9c-0.8,0.6-1.6,1.5-2.5,1.8c-4.9,1.5-9.8,2.8-14.8,4.2
			c-0.1,0.5-0.2,1.1-0.3,1.6c4.7,4.2,9.5,8.4,14.4,12.8c9.6-6.4,19.6-13.1,29.6-19.8C779.4,76.5,777.7,74.9,775.5,73z M894.1,158
			c1.5,13,6.8,24.7,7.3,37.3c1.1-1.4,2.2-2.8,3.3-4.3c2.6-3.3,3.1-7.5,6-10.9c2.2-2.7,1.9-7.8-1-11.3c-1.8-2.2-1-3.9,1.1-5.6
			c0.9,2.2,2.4,4.2,2.4,6.1c0,5.2,0.1,5.6,5.4,4.2c-1-1.2-2.2-2.2-2.7-3.4c-1.9-4.2-3.6-8.5-5.4-12.7c-0.3-0.6-1.1-1.2-1.7-1.2
			c-0.5,0-1.3,0.8-1.5,1.4c-0.6,1.5-0.9,3.1-1.5,5.2c-1.4-0.9-3-1.3-3.4-2.2C900.5,156.6,897.3,157.8,894.1,158z M877.8,393.9
			c9.4-1.2,18.1-2.2,26.7-3.5c1.1-0.2,2.4-1.2,2.9-2.2c1.5-2.8,2.7-5.8,3.8-8.4c-3.7-4.5-6.7,1.1-9.9-0.1c-3.1-6.9-3.1-7.1-10.8-5.2
			c-2.4,0.6-5.4,1.9-6.5,3.9C881.6,382.9,880.1,387.9,877.8,393.9z M545.5,357.4c2.4,19.7,13.9,33.7,28.7,46.2c-1-7.3-2-14.2-3-21
			c-0.1-0.8-0.9-1.6-1.5-2.2C561.6,372.8,553.6,365.2,545.5,357.4z M803.2,475.4c-8.2-0.7-16.3-0.9-24.3-2.1
			c-7.6-1.2-14.1-0.7-20.1,4.7c-2.8,2.5-6.5,3.9-10.4,6C775.6,487,790.7,484.5,803.2,475.4z M664.9,33.8c0.9-0.2,1.7-0.3,2.6-0.5
			c14-2.2,27.9-5,42-6.3c5.9-0.5,8.8-2.7,11.2-7.7c-1-0.1-1.8-0.2-2.5-0.2c-12.5,0.9-24.9,1.9-37.4,2.7
			C672.9,22.2,668.9,27.7,664.9,33.8z M726,102.8c-2.7,4.1-5.2,7.6-7.2,11.3c-0.5,1,0.2,3.9,0.8,4.1c1.8,0.4,3.7,0.2,4.9-2.2
			c1.2-2.5,2-6.6,6.3-5.6c4.7,1.1,7.9-0.9,11-4c2.9-2.8,3.2-5.9,0.5-8.7c-2.7-2.8-5.3-5.8-8.1-8.5c-1-0.9-3.2-2-4-1.5
			c-2.4,1.4-6.1,0.9-6.4,5.6C723.5,97.4,724,100.8,726,102.8z M668.7,52.2c0.3,0.3,0.5,0.6,0.8,0.9c3.3-2.4,7.1-4.3,9.7-7.3
			c2.3-2.6,4.6-4.4,7.8-5.4c2.9-0.9,5.7-1.8,8.5-2.8c2.8-1.1,5.6-2.3,8.4-3.5c-0.1-0.4-0.3-0.8-0.4-1.2c-0.6,0-1.3-0.1-1.9,0
			c-13.3,2.5-26.5,5.1-39.8,7.6c-0.7,0.1-1.7,0.5-1.9,1c-1.3,4.6-2.5,9.2-3.7,13.8c0.5,0.3,1,0.6,1.6,1c3.7-2.2,7.4-4.5,11.3-6.9
			C668.9,50.6,668.8,51.4,668.7,52.2z M528.1,162.1c8.3-11.2,16.1-21.7,23.7-32.2c0.7-1,1.1-2.3,1.3-3.5c0.6-6,1.1-12,1.7-18.3
			C544,125.1,532.9,141.7,528.1,162.1z M613.3,53.1c0.8,0.1,1.1,0.3,1.3,0.2c13.4-5.4,26.7-10.9,40-16.4c0.7-0.3,1.5-0.6,1.9-1.2
			c2.1-3.1,4-6.4,6.6-10.4C644.5,32.1,626,36.9,613.3,53.1z M812,136.2c6.4,2.3,12.8,4.7,19.6,7.2c1.1-7.8,2-14.9,3.1-22.7
			c-7.5,3-14.2,5.8-20.5,8.3C813.5,131.5,812.9,133.6,812,136.2z M785.2,105.1c-1-3.5-1.7-6.1-2.5-8.7c-0.5,0-1,0-1.5,0.1
			c-0.4,2.5-0.9,4.9-1.3,7.4c-0.4,1.4-1.5,2.7-2.7,3.9c-2.3,2.3-4.8,2-6-1c-1.2-3.1-2.1-6.3-3.2-9.4c-0.3-0.9-0.8-1.8-1.4-2.9
			c-1.8,1.3-3.2,2.3-3.7,2.6c-0.6,4.7-1.1,9.1,1.9,12s6.8,5,10.4,7.6C779,112.4,782.4,108.4,785.2,105.1z M675,171.6
			c-4.6-0.6-8.7-0.6-12.5-1.6c-5.1-1.4-8.2,1.5-12.2,4.2c4.4,4.1,8.3,7.8,12.4,11.7C666.9,180.9,670.8,176.4,675,171.6z M741,141.7
			c-4.4,0.3-7.5,0.5-10.7,0.7c2.8,1.4,5.7,2,8.6,2.8c0.8,0.2,1.4,1.5,2,2.3c-1,0.5-1.9,1.1-3,1.4c-0.6,0.1-1.4-0.3-1.3-0.3
			c-0.5,1.6-0.7,2.9-1.2,4.1c-1,2.2-2.1,4.2,0,6.4c1.4,1.3,2.6,2.8,4,4.4c3.8-5.3,7.4-10.2,11.4-15.8
			C746.9,145.3,743.3,143.2,741,141.7z M791.4,79.5c3.9,6.9-1.3,13.1-1.9,19.6c0.3,0.1,0.7,0.1,1,0.2c5.7-5.4,11.3-10.8,17.2-16.3
			c-1.9-1.3-3.6-2.5-5.3-3.7C797.4,75.6,797.4,75.6,791.4,79.5z M925.4,150.5c-1.3,0.6-2.9,0.9-3.6,1.8c-1.3,1.9-3.4,4.5-3,6.3
			c1.3,5.1,3.7,9.9,5.7,15.1c1.4-2.5,5.9-0.6,5.5-4.5c-0.3-2.6-1.2-5.1-1.9-7.7c-0.2-0.9-0.6-1.7-0.9-2.6c-0.1-0.3,0.1-0.7,0.1-1.2
			c1.1,0.2,2,0.4,3.3,0.6C928.9,155.6,927.2,153.1,925.4,150.5z M782.7,59.2c-1.9-2.9-4.4-3.7-7.6-3.4c-6.2,0.5-12.1,3.4-18.5,2.5
			c-0.3-0.1-0.8,0.5-0.5,0.3c1.2,2.8,2.2,5.3,3.4,8.1c2.7,0,7,2,8.2-3.6C772.7,61.9,778.3,63.2,782.7,59.2z M969.5,194.4
			c-2.5,2.2-4.6,4-6.5,5.9c-0.6,0.6-1.2,1.8-1.1,2.5c0.9,3.7,2.2,7.2,3.3,10.9c1.2-2.7,2.3-4.9,3.3-7.2c0.2,0.4,0.5,0.7,0.7,1.1
			c1.5-0.3,3.7-0.2,4.3-1.1C977.7,200.6,976.1,196.5,969.5,194.4z M985.6,296.6c0.6,0.1,1.2,0.1,1.8,0.2c0.4-2.7,1.3-5.4,1.2-8
			c-0.4-5.4-0.8-10.9-2.4-16c-1.2-3.7-4.3-6.8-6.6-10.2c-0.4,0.2-0.9,0.5-1.3,0.7c1.1,4,2.1,8,3.2,11.9c0.6,2.2,1.4,4.4,2.1,6.6
			c0.7,2.3,1.6,4.5,1.9,6.8C985.8,291.3,985.6,294,985.6,296.6z M898.6,118.5c0.8-1.8,1.9-3.4,2.3-5.1c0.3-1.4,0.3-3.3-0.5-4.3
			c-2.2-3-5.1-5.6-7.4-8.5c-2.2-2.7-4.3-3.5-6.7-0.6C890.4,106.2,894.5,112.4,898.6,118.5z M976.9,230.1c-2.3,3-6.6,3.1-6,7.3
			c0.7,5.1,1.8,10.1,2.7,15.3c3.3-0.9,4.6-2.7,4.3-6c-0.3-3.9,0-7.8-0.1-11.7C977.7,233.6,977.3,232.3,976.9,230.1z M725.9,9.4
			c-11.5,0.6-23.2,0.2-34.1,4.7c11.8,0,23.7,0,35.9,0C726.9,12.1,726.4,10.9,725.9,9.4z M668.3,422.5c-2,0-3.1,0-4.3,0
			c-3.5-0.2-7.1-0.7-7.9,4.4c-0.1,0.9-1.7,1.5-2.8,2.3c3.3,1.6,6.5,3.1,9.9,4.7C664.9,430.1,666.5,426.6,668.3,422.5z M854,294
			c5.1-3.7,10.4-7.5,16.1-11.6c-4.7-0.5-9.1-1-13.7-1.5C855.5,285.8,854.7,290.3,854,294z M514.5,286c0.3,0,0.6,0,1,0
			c-0.8-10.8,4.2-22.2-4.3-32.5C512.3,264.6,513.4,275.3,514.5,286z M912.5,126.6c-0.6,0.3-1.1,0.6-1.7,0.9c0.5,1.5,1,2.9,1.5,4.4
			c0.4,1.5,1.4,3.1,1,4.4c-1.4,4.7,1.3,8.1,3,12.2c1.4-0.7,2.6-1.2,2.9-1.4c-1.3-5.6-2.2-10.6-3.6-15.6
			C915.1,129.7,913.6,128.2,912.5,126.6z M650.4,462.4c0-0.4-0.1-0.7-0.1-1.1c-9.8-5.1-19.6-10.2-30.1-15.7c0.8,1.3,0.9,1.9,1.3,2.1
			c8.8,5,17.6,10,26.5,14.9C648.5,463,649.6,462.5,650.4,462.4z M581.2,407.6c0.6-4-0.8-8.2,3.1-11.3c0.6-0.4,0.3-3-0.4-3.8
			c-1.8-2-4.2-3.5-6.3-5.2c-0.3,0.2-0.6,0.3-0.9,0.5C578.3,394.4,579.8,401,581.2,407.6z M686.1,476.6c0.1-0.2,0.1-0.4,0.2-0.5
			c-9.7-3.9-19.3-7.9-29.1-11.7c-0.6-0.2-1.5,0.2-2.2,0.4c0.5,0.6,0.8,1.6,1.5,1.8c9,3.4,18,6.7,27,9.9
			C684.3,476.8,685.3,476.6,686.1,476.6z M762.3,39.4c4.4,0,9.2,0,14.4,0c0-0.7,0.1-1.8,0.2-3.1c-5.5-1-10.8-1.9-16.2-2.8
			C761.3,35.7,761.8,37.4,762.3,39.4z M603.8,98.6c4.5-5.3,8.5-10,12.5-14.7c-0.3-0.3-0.6-0.6-0.9-0.9c-2.9,1.8-5.9,3.7-8.8,5.5
			C601.8,91.6,601.6,92.1,603.8,98.6z M780.5,29.9c-5.7-1.4-11-6.2-17.9-1.6C769,28.8,774.5,31.4,780.5,29.9z M828.4,474.9
			c-7.5-0.5-15-0.6-21.2,5.9C814.7,478.7,821.6,476.8,828.4,474.9z M797.3,20.3c-5.5-3.7-10.9-7.3-17.8-6.4
			C785.7,15.5,790.6,20.6,797.3,20.3z M538.6,357.1c1.1-9.1-4.3-13.9-8.7-19.2C532.6,344,535.4,350,538.6,357.1z M760.9,45.4
			c-0.1-0.4-0.2-0.7-0.3-1.1c-3.1,1.4-6.2,2.8-10.4,4.7c2.2,1.5,4.1,2.8,6,4.1c0.3-0.4,0.7-0.9,1-1.3c-0.9-0.5-1.8-1-3.5-1.8
			C756.8,48.1,758.8,46.8,760.9,45.4z M611.5,425.5c-0.4-0.1-0.7-0.3-1.1-0.4c-0.4,1-0.9,2-1.3,3c-1.6,0-3,0-5.3,0
			c3.1,2,5.4,3.5,7.7,5C611.5,430.3,611.5,427.9,611.5,425.5z M776,9.2c-5-0.6-9.3-1.1-13.7-1.7c0,0.4-0.1,0.8-0.1,1.2
			C766.6,9.4,770.6,12.8,776,9.2z M900.6,74.8c-0.5,0.6-1,1.2-1.5,1.8c3.8,2.7,7.6,5.4,11.4,8c0.3-0.3,0.5-0.7,0.8-1
			C907.8,80.7,904.2,77.7,900.6,74.8z M812,20.1c-2.9-4.5-6.4-5.6-10.8-3.7C805.3,17.8,808.6,19,812,20.1z M788,23.7
			c-3.4-1.4-6.1-2.6-9.6-4.1c0.3,1.6,0.4,3.4,0.7,3.5C781.8,23.6,784.4,26.1,788,23.7z M770.1,45.6c0,0.3,0,0.5-0.1,0.8
			c2.4,1.4,4.9,2.8,8.2,4.7c-0.6-2.7-0.9-4-1.1-5C774.5,45.9,772.3,45.7,770.1,45.6z M962.4,191.3c0.7,0.2,1.3,0.4,2,0.6
			c0.6-2.6,1.2-5.2,1.8-7.8c-0.6-0.1-1.1-0.3-1.7-0.4C963.9,186.2,963.1,188.8,962.4,191.3z M603.8,58.7c-0.3-0.4-0.7-0.9-1-1.3
			c-2.9,2.4-5.8,4.9-8.7,7.3c0.2,0.3,0.5,0.6,0.7,0.9C597.7,63.2,600.7,60.9,603.8,58.7z M610.1,98.2c-0.3-0.2-0.7-0.4-1-0.6
			c-1.2,2.4-5.7,2.7-3.6,8.1C607.3,102.6,608.7,100.4,610.1,98.2z"/>
	</g>
</g>
</svg>
